<?xml version="1.0" encoding="UTF-8"?>
<svg version="1.1" xmlns="http://www.w3.org/2000/svg" width="200" height="200">
<path d="M0 0 C66 0 132 0 200 0 C200 66 200 132 200 200 C134 200 68 200 0 200 C0 134 0 68 0 0 Z " fill="#FDFEFD" transform="translate(0,0)"/>
<path d="M0 0 C1.143479 0.00684814 2.28695801 0.01369629 3.46508789 0.02075195 C12.00767221 0.18294139 19.23546877 1.14922763 27.1875 4.4375 C28.14140625 4.81132812 29.0953125 5.18515625 30.078125 5.5703125 C46.72650904 12.59239627 61.02236644 24.10723288 69.1875 40.4375 C69.30340682 42.14050054 69.35708122 43.84790608 69.38037109 45.5546875 C69.39643402 46.62340088 69.41249695 47.69211426 69.42904663 48.79321289 C69.47358317 53.70800154 69.51460449 58.622654 69.53759766 63.53759766 C69.55410835 66.1233015 69.58133288 68.70896064 69.61962891 71.29443359 C69.67466726 75.02986247 69.69631917 78.76421904 69.7109375 82.5 C69.73360687 83.6451709 69.75627625 84.7903418 69.77963257 85.97021484 C69.7448834 99.3079998 63.05610284 108.08690787 54.1875 117.4375 C51.91339013 119.36888055 49.74163684 120.88280801 47.1875 122.4375 C47.5175 122.9325 47.8475 123.4275 48.1875 123.9375 C49.60021763 127.46929408 49.73586699 130.72159213 49.1875 134.4375 C44.93445329 143.91019494 33.39797697 148.90058027 24.1875 152.4375 C22.51107422 152.89576172 22.51107422 152.89576172 20.80078125 153.36328125 C10.39846386 156.32719787 5.81854196 161.52706343 -0.53417969 169.79589844 C-8.87536033 180.5075292 -20.73316302 188.05474344 -34.31640625 189.75 C-56.16705904 190.79205796 -72.54470461 178.17338501 -88.8125 165.4375 C-98.7934253 157.6694 -110.84978244 152.84833462 -123.5546875 152.640625 C-125.8125 152.4375 -125.8125 152.4375 -127.8125 150.4375 C-127.1834375 150.47230469 -126.554375 150.50710937 -125.90625 150.54296875 C-118.8197365 150.76709041 -113.34270015 150.36596148 -107.75 145.7265625 C-98.75651184 136.56274313 -94.60962423 124.26465365 -94.55273438 111.64648438 C-94.61862787 106.05567469 -95.59536137 101.61082347 -97.8125 96.4375 C-91.87766274 101.38319772 -91.57462072 108.19735314 -90.8125 115.4375 C-86.18704254 114.69742681 -84.01050049 112.22692309 -81.09765625 108.7265625 C-79.59704012 106.05373256 -79.58625742 105.21724853 -80.375 102.3125 C-80.61347656 101.56355469 -80.85195312 100.81460938 -81.09765625 100.04296875 C-83.66967799 90.66844143 -82.1774608 82.27994831 -77.47265625 73.94921875 C-75.47311101 70.92402442 -73.67390157 68.66303455 -70.8125 66.4375 C-70.1525 66.4375 -69.4925 66.4375 -68.8125 66.4375 C-68.72613281 65.44492188 -68.63976562 64.45234375 -68.55078125 63.4296875 C-67.59072541 53.75730443 -65.49986609 45.44480648 -61.8125 36.4375 C-64.4525 36.1075 -67.0925 35.7775 -69.8125 35.4375 C-69.3175 34.4475 -69.3175 34.4475 -68.8125 33.4375 C-66.79427083 33.73046875 -64.77604167 34.0234375 -62.7578125 34.31640625 C-60.73109333 34.6059297 -60.73109333 34.6059297 -58.8125 33.4375 C-58.8125 34.4275 -58.8125 35.4175 -58.8125 36.4375 C-58.21711426 36.54819824 -57.62172852 36.65889648 -57.00830078 36.77294922 C-54.31645324 37.27809772 -51.62702646 37.79514225 -48.9375 38.3125 C-48.00035156 38.48652344 -47.06320313 38.66054688 -46.09765625 38.83984375 C-45.20175781 39.01386719 -44.30585937 39.18789063 -43.3828125 39.3671875 C-42.55539551 39.52429199 -41.72797852 39.68139648 -40.87548828 39.84326172 C-38.8125 40.4375 -38.8125 40.4375 -36.8125 42.4375 C-45.12866812 41.85390925 -52.82709326 39.69950586 -60.8125 37.4375 C-61.01359375 38.52417969 -61.01359375 38.52417969 -61.21875 39.6328125 C-61.94993926 43.08671968 -63.01396389 46.38405268 -64.09375 49.7421875 C-67.78023026 63.56648846 -66.55072901 78.7974144 -62.8125 92.4375 C-61.89855469 92.47746094 -60.98460938 92.51742187 -60.04296875 92.55859375 C-36.47354991 94.1855308 -9.14167537 103.74090988 7.625 120.9375 C11.82070426 123.393522 15.59632697 122.59029091 20.1875 121.4375 C31.4684456 117.11396579 39.16836213 109.68730932 44.44921875 98.84765625 C45.46321147 96.40125747 46.35524122 93.95100517 47.1875 91.4375 C47.6 90.220625 48.0125 89.00375 48.4375 87.75 C51.41848637 74.30846148 48.89675101 61.13953436 41.8125 49.5 C38.9755423 45.3089005 35.93989837 41.82381073 32.1875 38.4375 C29.93128837 39.52382412 27.81396456 40.67095965 25.6875 42 C21.21175336 44.57355432 17.34637431 44.86740619 12.1875 44.4375 C8.36708605 43.10415481 5.0273972 41.89865449 2.95703125 38.296875 C2.70308594 37.68328125 2.44914063 37.0696875 2.1875 36.4375 C2.62578125 36.7984375 3.0640625 37.159375 3.515625 37.53125 C9.48998016 41.90272939 14.91310334 42.55427357 22.1875 41.4375 C25.70412056 39.87309628 25.70412056 39.87309628 28.1875 37.4375 C29.30125 36.509375 29.30125 36.509375 30.4375 35.5625 C34.50696204 30.62101038 34.55795644 25.15622638 34.44921875 19 C34.00748023 14.6749184 32.16558158 12.41558158 29.1875 9.4375 C24.66630369 7.69857834 19.47815189 7.43741467 15.03125 9.37890625 C8.357316 13.35089309 4.766407 18.0691943 2.1875 25.4375 C1.69101331 28.43074185 1.38653612 31.41077826 1.1875 34.4375 C0.8575 34.4375 0.5275 34.4375 0.1875 34.4375 C0.13312393 32.85455218 0.09453729 31.27105744 0.0625 29.6875 C0.03929687 28.80578125 0.01609375 27.9240625 -0.0078125 27.015625 C0.19610498 24.3239142 0.82198279 22.73845026 2.1875 20.4375 C1.5275 20.1075 0.8675 19.7775 0.1875 19.4375 C1.115625 19.0971875 1.115625 19.0971875 2.0625 18.75 C4.95850673 16.96128996 5.28075894 15.71571768 6.1875 12.4375 C6.67651958 9.44734901 7.10608465 6.46865618 7.1875 3.4375 C5.19772675 1.44772675 1.40219538 2.19723118 -1.3125 2.1875 C-8.63829341 2.21341195 -15.03349579 2.30713084 -20.90625 7.171875 C-24.15799075 10.50103815 -25.67410719 12.59330388 -26.4375 17.25 C-25.80995565 20.4504762 -25.43139148 21.58245187 -22.8125 23.4375 C-23.4725 24.0975 -24.1325 24.7575 -24.8125 25.4375 C-27.70408993 21.84491858 -28.86556524 20.26001115 -28.5625 15.5625 C-28.19125 14.015625 -28.19125 14.015625 -27.8125 12.4375 C-29.41713449 12.74758884 -31.02119231 13.06066287 -32.625 13.375 C-33.51832031 13.54902344 -34.41164063 13.72304688 -35.33203125 13.90234375 C-38.56653679 14.60018195 -40.43881168 15.06381168 -42.8125 17.4375 C-44.2975 16.9425 -44.2975 16.9425 -45.8125 16.4375 C-41.51762958 12.14262958 -37.04371311 9.33008779 -31.5625 6.75 C-30.96751709 6.46503662 -30.37253418 6.18007324 -29.75952148 5.88647461 C-20.01419044 1.45466005 -10.66813223 -0.09833468 0 0 Z " fill="#039EE4" transform="translate(130.8125,6.5625)"/>
<path d="M0 0 C1.09248047 -0.01836914 1.09248047 -0.01836914 2.20703125 -0.03710938 C4.09782978 -0.04235188 5.98815581 0.06516615 7.875 0.1875 C9.875 2.1875 9.875 2.1875 9.95703125 4.17578125 C9.41663665 8.83570568 8.86328528 12.39467638 5.875 16.1875 C4.885 16.8475 3.895 17.5075 2.875 18.1875 C3.37 19.6725 3.37 19.6725 3.875 21.1875 C4.390625 20.15625 4.90625 19.125 5.4375 18.0625 C8.49927973 12.69076545 13.15596344 8.5786964 18.875 6.1875 C25.00525417 5.79827751 29.30181962 5.97170578 34.125 10.125 C38.00349316 14.69608122 37.28943536 20.51292356 36.875 26.1875 C35.12330314 32.75636322 31.14909953 36.22352711 25.875 40.1875 C21.70257272 42.27371364 16.41813381 41.64299649 11.875 41.1875 C9.34749673 40.12353263 7.94777594 39.0299675 5.875 37.1875 C9.10818 40.93118211 12.3108944 42.03994287 17.1875 42.5 C23.02525978 42.00527459 27.86973255 40.60071136 31.875 36.1875 C41.8890499 40.50466818 46.84372707 51.66761138 50.6875 61.203125 C54.57067288 73.60770502 51.6791677 86.56694776 46.875 98.1875 C45.13553818 101.44785252 43.18364545 104.30942993 40.875 107.1875 C40.111875 108.239375 39.34875 109.29125 38.5625 110.375 C32.1261795 117.11068425 24.22373753 121.50996675 14.91015625 122.50390625 C11.04730743 122.10121545 9.81550971 120.88110732 7 118.25 C-11.86630136 102.09335535 -36.97337711 94.82737224 -61.125 91.1875 C-67.76929201 73.00468301 -66.61169199 54.01295712 -59.125 36.1875 C-51.79166667 37.52083333 -44.45833333 38.85416667 -37.125 40.1875 C-38.40117188 39.91035156 -39.67734375 39.63320313 -40.9921875 39.34765625 C-42.66148893 38.98191043 -44.3307581 38.61601738 -46 38.25 C-46.84175781 38.06759766 -47.68351562 37.88519531 -48.55078125 37.69726562 C-49.35644531 37.52001953 -50.16210938 37.34277344 -50.9921875 37.16015625 C-51.73581543 36.99781494 -52.47944336 36.83547363 -53.24560547 36.66821289 C-55.125 36.1875 -55.125 36.1875 -57.125 35.1875 C-56.69244475 29.78055933 -55.54278487 26.43383878 -52.125 22.1875 C-51.465 22.1875 -50.805 22.1875 -50.125 22.1875 C-49.691875 21.2903125 -49.691875 21.2903125 -49.25 20.375 C-48.125 18.1875 -48.125 18.1875 -46.125 15.1875 C-46.04594936 12.85550612 -46.03701231 10.51917378 -46.125 8.1875 C-44.125 10 -44.125 10 -42.125 12.1875 C-42.125 13.1775 -42.125 14.1675 -42.125 15.1875 C-41.55652344 14.89875 -40.98804687 14.61 -40.40234375 14.3125 C-35.33856288 11.87782739 -31.73898967 10.70971364 -26.125 11.1875 C-26.145625 12.321875 -26.16625 13.45625 -26.1875 14.625 C-26.54077477 18.00325674 -26.54077477 18.00325674 -25.125 19.1875 C-25.269375 18.1975 -25.41375 17.2075 -25.5625 16.1875 C-25.5718895 11.56786813 -23.14495949 9.13334658 -20.06640625 5.91796875 C-14.032167 0.53936113 -7.74327535 0.00692601 0 0 Z " fill="#FAFAF9" transform="translate(129.125,7.8125)"/>
<path d="M0 0 C1.143479 0.00684814 2.28695801 0.01369629 3.46508789 0.02075195 C12.00767221 0.18294139 19.23546877 1.14922763 27.1875 4.4375 C28.14140625 4.81132812 29.0953125 5.18515625 30.078125 5.5703125 C46.72650904 12.59239627 61.02236644 24.10723288 69.1875 40.4375 C69.30340682 42.14050054 69.35708122 43.84790608 69.38037109 45.5546875 C69.39643402 46.62340088 69.41249695 47.69211426 69.42904663 48.79321289 C69.47358317 53.70800154 69.51460449 58.622654 69.53759766 63.53759766 C69.55410835 66.1233015 69.58133288 68.70896064 69.61962891 71.29443359 C69.67466726 75.02986247 69.69631917 78.76421904 69.7109375 82.5 C69.73360687 83.6451709 69.75627625 84.7903418 69.77963257 85.97021484 C69.7448834 99.3079998 63.05610284 108.08690787 54.1875 117.4375 C51.91339013 119.36888055 49.74163684 120.88280801 47.1875 122.4375 C47.5175 122.9325 47.8475 123.4275 48.1875 123.9375 C49.59763588 127.4628397 49.75437127 130.72772221 49.1875 134.4375 C46.58932908 139.73776868 43.00339379 142.28864637 38.1875 145.4375 C37.8575 144.7775 37.5275 144.1175 37.1875 143.4375 C37.97125 142.86 38.755 142.2825 39.5625 141.6875 C41.98797244 139.60852363 43.04444417 138.34709667 44.1875 135.4375 C45.1775 135.4375 46.1675 135.4375 47.1875 135.4375 C47.45326616 131.41749573 47.45326616 131.41749573 47.1875 127.4375 C44.10028679 124.01951395 40.57952171 123.51375087 36.12109375 123.26953125 C29.4476792 123.2322496 23.31858676 123.65442358 16.78515625 124.97265625 C12.54951366 125.73061334 8.45021531 126.18930164 4.1875 125.4375 C0.9375 123.125 0.9375 123.125 -1.8125 120.4375 C-3.78246343 119.37955668 -5.77520075 118.35913538 -7.8125 117.4375 C-7.8125 116.7775 -7.8125 116.1175 -7.8125 115.4375 C-8.60865723 115.18335327 -8.60865723 115.18335327 -9.42089844 114.92407227 C-15.40432658 112.97653779 -21.23339576 110.74087891 -27.0625 108.375 C-27.93390625 108.02373047 -28.8053125 107.67246094 -29.703125 107.31054688 C-31.35915541 106.64283339 -33.01478327 105.97412027 -34.66992188 105.30419922 C-37.04820598 104.34215403 -39.42948096 103.38775346 -41.8125 102.4375 C-41.60625 103.51 -41.4 104.5825 -41.1875 105.6875 C-40.80766946 109.48580539 -41.00647748 110.3217665 -42.8125 113.4375 C-42.03003906 113.63085938 -41.24757813 113.82421875 -40.44140625 114.0234375 C-38.92353516 114.41402344 -38.92353516 114.41402344 -37.375 114.8125 C-35.86099609 115.19535156 -35.86099609 115.19535156 -34.31640625 115.5859375 C-31.8125 116.4375 -31.8125 116.4375 -30.8125 118.4375 C-31.4725 118.2725 -32.1325 118.1075 -32.8125 117.9375 C-40.82419832 116.60221695 -45.70336543 117.77602843 -52.8125 121.4375 C-54.14583333 122.10416667 -55.47916667 122.77083333 -56.8125 123.4375 C-56.8125 121.1275 -56.8125 118.8175 -56.8125 116.4375 C-57.369375 116.169375 -57.92625 115.90125 -58.5 115.625 C-60.8125 114.4375 -60.8125 114.4375 -63.125 112.8125 C-66.63839453 111.01494931 -68.92092905 110.86097097 -72.8125 111.4375 C-76.1450312 115.44419843 -76.18624133 119.25968744 -76 124.25 C-75.98646484 124.94287109 -75.97292969 125.63574219 -75.95898438 126.34960938 C-75.92388845 128.04591265 -75.87008943 129.74181136 -75.8125 131.4375 C-78.62005356 128.62994644 -78.7913969 126.68651656 -79.125 122.75 C-79.08945755 117.95176979 -77.26743505 112.89243505 -73.8125 109.4375 C-72.29780552 109.20557135 -70.77495438 109.02534762 -69.25 108.875 C-68.01056641 108.74931641 -68.01056641 108.74931641 -66.74609375 108.62109375 C-66.10800781 108.56050781 -65.46992187 108.49992187 -64.8125 108.4375 C-64.668125 107.15875 -64.52375 105.88 -64.375 104.5625 C-64.10607254 102.18057106 -63.89023654 100.59297309 -62.8125 98.4375 C-71.03238683 102.43043435 -78.32628845 106.57345539 -81.8125 115.4375 C-82.42550754 121.28958358 -83.05178583 128.04377348 -80.3125 133.4375 C-77.2259878 137.14131464 -73.81538928 139.78510007 -69.8125 142.4375 C-70.42527612 139.47574877 -71.06622522 138.05691217 -72.8125 135.4375 C-71.6678125 135.7778125 -71.6678125 135.7778125 -70.5 136.125 C-69.1696875 136.2796875 -69.1696875 136.2796875 -67.8125 136.4375 C-66.13767518 135.01297956 -66.13767518 135.01297956 -64.8125 133.4375 C-65.28980838 134.8964426 -65.76941042 136.35463496 -66.25 137.8125 C-66.51683594 138.62460938 -66.78367188 139.43671875 -67.05859375 140.2734375 C-67.8125 142.4375 -67.8125 142.4375 -68.8125 144.4375 C-70.00684103 157.44779024 -70.00684103 157.44779024 -64.51171875 168.83203125 C-60.73811914 172.39743226 -57.53888739 173.57499529 -52.4375 173.75 C-48.01009954 173.60718063 -44.05639928 172.67208888 -39.8125 171.4375 C-42.5338814 174.28258055 -43.8267906 175.3950233 -47.89453125 175.5703125 C-49.12558594 175.56773437 -50.35664062 175.56515625 -51.625 175.5625 C-52.84832031 175.56507813 -54.07164063 175.56765625 -55.33203125 175.5703125 C-58.8125 175.4375 -58.8125 175.4375 -61.51171875 174.6796875 C-62.65060547 174.55980469 -62.65060547 174.55980469 -63.8125 174.4375 C-66.14704661 176.27108335 -66.14704661 176.27108335 -67.8125 178.4375 C-65.81686738 179.40489508 -63.81574118 180.36096044 -61.8125 181.3125 C-60.69875 181.84617188 -59.585 182.37984375 -58.4375 182.9296875 C-51.81509743 185.68426443 -45.65821714 186.82650181 -38.5 186.8125 C-37.76305908 186.81306396 -37.02611816 186.81362793 -36.2668457 186.81420898 C-29.84498768 186.68587001 -24.66791042 185.02719306 -18.8125 182.4375 C-17.4870814 182.07396951 -16.15550045 181.72945662 -14.8125 181.4375 C-17.04612767 183.92721237 -19.12696983 185.23592208 -22.1875 186.5625 C-22.93773438 186.89507812 -23.68796875 187.22765625 -24.4609375 187.5703125 C-36.76548587 192.10787021 -50.39350524 188.90822811 -62.12890625 184.0703125 C-71.89896901 179.15471146 -80.23921035 172.14943782 -88.8125 165.4375 C-98.7934253 157.6694 -110.84978244 152.84833462 -123.5546875 152.640625 C-125.8125 152.4375 -125.8125 152.4375 -127.8125 150.4375 C-127.1834375 150.47230469 -126.554375 150.50710937 -125.90625 150.54296875 C-118.8197365 150.76709041 -113.34270015 150.36596148 -107.75 145.7265625 C-98.75651184 136.56274313 -94.60962423 124.26465365 -94.55273438 111.64648438 C-94.61862787 106.05567469 -95.59536137 101.61082347 -97.8125 96.4375 C-91.87766274 101.38319772 -91.57462072 108.19735314 -90.8125 115.4375 C-86.18704254 114.69742681 -84.01050049 112.22692309 -81.09765625 108.7265625 C-79.59704012 106.05373256 -79.58625742 105.21724853 -80.375 102.3125 C-80.61347656 101.56355469 -80.85195312 100.81460938 -81.09765625 100.04296875 C-83.66967799 90.66844143 -82.1774608 82.27994831 -77.47265625 73.94921875 C-75.47311101 70.92402442 -73.67390157 68.66303455 -70.8125 66.4375 C-70.1525 66.4375 -69.4925 66.4375 -68.8125 66.4375 C-68.72613281 65.44492188 -68.63976562 64.45234375 -68.55078125 63.4296875 C-67.59072541 53.75730443 -65.49986609 45.44480648 -61.8125 36.4375 C-64.4525 36.1075 -67.0925 35.7775 -69.8125 35.4375 C-69.3175 34.4475 -69.3175 34.4475 -68.8125 33.4375 C-66.79427083 33.73046875 -64.77604167 34.0234375 -62.7578125 34.31640625 C-60.73109333 34.6059297 -60.73109333 34.6059297 -58.8125 33.4375 C-58.8125 34.4275 -58.8125 35.4175 -58.8125 36.4375 C-58.21711426 36.54819824 -57.62172852 36.65889648 -57.00830078 36.77294922 C-54.31645324 37.27809772 -51.62702646 37.79514225 -48.9375 38.3125 C-48.00035156 38.48652344 -47.06320313 38.66054688 -46.09765625 38.83984375 C-45.20175781 39.01386719 -44.30585937 39.18789063 -43.3828125 39.3671875 C-42.55539551 39.52429199 -41.72797852 39.68139648 -40.87548828 39.84326172 C-38.8125 40.4375 -38.8125 40.4375 -36.8125 42.4375 C-45.12866812 41.85390925 -52.82709326 39.69950586 -60.8125 37.4375 C-61.01359375 38.52417969 -61.01359375 38.52417969 -61.21875 39.6328125 C-61.94993926 43.08671968 -63.01396389 46.38405268 -64.09375 49.7421875 C-67.78023026 63.56648846 -66.55072901 78.7974144 -62.8125 92.4375 C-61.89855469 92.47746094 -60.98460938 92.51742187 -60.04296875 92.55859375 C-36.47354991 94.1855308 -9.14167537 103.74090988 7.625 120.9375 C11.82070426 123.393522 15.59632697 122.59029091 20.1875 121.4375 C31.4684456 117.11396579 39.16836213 109.68730932 44.44921875 98.84765625 C45.46321147 96.40125747 46.35524122 93.95100517 47.1875 91.4375 C47.6 90.220625 48.0125 89.00375 48.4375 87.75 C51.41848637 74.30846148 48.89675101 61.13953436 41.8125 49.5 C38.9755423 45.3089005 35.93989837 41.82381073 32.1875 38.4375 C29.93128837 39.52382412 27.81396456 40.67095965 25.6875 42 C21.21175336 44.57355432 17.34637431 44.86740619 12.1875 44.4375 C8.36708605 43.10415481 5.0273972 41.89865449 2.95703125 38.296875 C2.70308594 37.68328125 2.44914063 37.0696875 2.1875 36.4375 C2.62578125 36.7984375 3.0640625 37.159375 3.515625 37.53125 C9.48998016 41.90272939 14.91310334 42.55427357 22.1875 41.4375 C25.70412056 39.87309628 25.70412056 39.87309628 28.1875 37.4375 C29.30125 36.509375 29.30125 36.509375 30.4375 35.5625 C34.50696204 30.62101038 34.55795644 25.15622638 34.44921875 19 C34.00748023 14.6749184 32.16558158 12.41558158 29.1875 9.4375 C24.66630369 7.69857834 19.47815189 7.43741467 15.03125 9.37890625 C8.357316 13.35089309 4.766407 18.0691943 2.1875 25.4375 C1.69101331 28.43074185 1.38653612 31.41077826 1.1875 34.4375 C0.8575 34.4375 0.5275 34.4375 0.1875 34.4375 C0.13312393 32.85455218 0.09453729 31.27105744 0.0625 29.6875 C0.03929687 28.80578125 0.01609375 27.9240625 -0.0078125 27.015625 C0.19610498 24.3239142 0.82198279 22.73845026 2.1875 20.4375 C1.5275 20.1075 0.8675 19.7775 0.1875 19.4375 C1.115625 19.0971875 1.115625 19.0971875 2.0625 18.75 C4.95850673 16.96128996 5.28075894 15.71571768 6.1875 12.4375 C6.67651958 9.44734901 7.10608465 6.46865618 7.1875 3.4375 C5.19772675 1.44772675 1.40219538 2.19723118 -1.3125 2.1875 C-8.63829341 2.21341195 -15.03349579 2.30713084 -20.90625 7.171875 C-24.15799075 10.50103815 -25.67410719 12.59330388 -26.4375 17.25 C-25.80995565 20.4504762 -25.43139148 21.58245187 -22.8125 23.4375 C-23.4725 24.0975 -24.1325 24.7575 -24.8125 25.4375 C-27.70408993 21.84491858 -28.86556524 20.26001115 -28.5625 15.5625 C-28.19125 14.015625 -28.19125 14.015625 -27.8125 12.4375 C-29.41713449 12.74758884 -31.02119231 13.06066287 -32.625 13.375 C-33.51832031 13.54902344 -34.41164063 13.72304688 -35.33203125 13.90234375 C-38.56653679 14.60018195 -40.43881168 15.06381168 -42.8125 17.4375 C-44.2975 16.9425 -44.2975 16.9425 -45.8125 16.4375 C-41.51762958 12.14262958 -37.04371311 9.33008779 -31.5625 6.75 C-30.96751709 6.46503662 -30.37253418 6.18007324 -29.75952148 5.88647461 C-20.01419044 1.45466005 -10.66813223 -0.09833468 0 0 Z " fill="#049FE5" transform="translate(130.8125,6.5625)"/>
<path d="M0 0 C1.143479 0.00684814 2.28695801 0.01369629 3.46508789 0.02075195 C12.00767221 0.18294139 19.23546877 1.14922763 27.1875 4.4375 C28.14140625 4.81132812 29.0953125 5.18515625 30.078125 5.5703125 C46.72650904 12.59239627 61.02236644 24.10723288 69.1875 40.4375 C69.30340682 42.14050054 69.35708122 43.84790608 69.38037109 45.5546875 C69.39643402 46.62340088 69.41249695 47.69211426 69.42904663 48.79321289 C69.47358317 53.70800154 69.51460449 58.622654 69.53759766 63.53759766 C69.55410835 66.1233015 69.58133288 68.70896064 69.61962891 71.29443359 C69.67466726 75.02986247 69.69631917 78.76421904 69.7109375 82.5 C69.73360687 83.6451709 69.75627625 84.7903418 69.77963257 85.97021484 C69.7448834 99.3079998 63.05610284 108.08690787 54.1875 117.4375 C51.91339013 119.36888055 49.74163684 120.88280801 47.1875 122.4375 C47.5175 122.9325 47.8475 123.4275 48.1875 123.9375 C49.59763588 127.4628397 49.75437127 130.72772221 49.1875 134.4375 C46.58932908 139.73776868 43.00339379 142.28864637 38.1875 145.4375 C37.8575 144.7775 37.5275 144.1175 37.1875 143.4375 C37.97125 142.86 38.755 142.2825 39.5625 141.6875 C41.98797244 139.60852363 43.04444417 138.34709667 44.1875 135.4375 C45.1775 135.4375 46.1675 135.4375 47.1875 135.4375 C47.45326616 131.41749573 47.45326616 131.41749573 47.1875 127.4375 C44.10028679 124.01951395 40.57952171 123.51375087 36.12109375 123.26953125 C29.4518717 123.23227303 23.32440653 123.64401908 16.796875 124.9765625 C12.68102851 125.70361323 8.30062415 126.34300121 4.1875 125.4375 C2.40625 123.4140625 2.40625 123.4140625 1.1875 121.4375 C1.785625 121.7675 2.38375 122.0975 3 122.4375 C5.24136471 123.64537988 5.24136471 123.64537988 8.1875 123.4375 C8.5175 122.7775 8.8475 122.1175 9.1875 121.4375 C9.5175 121.7675 9.8475 122.0975 10.1875 122.4375 C19.22694006 122.69316093 26.08260719 119.2545833 33.375 114.25 C39.97062666 107.65437334 44.26767594 100.2556621 47.1875 91.4375 C47.6 90.220625 48.0125 89.00375 48.4375 87.75 C51.41848637 74.30846148 48.89675101 61.13953436 41.8125 49.5 C38.9755423 45.3089005 35.93989837 41.82381073 32.1875 38.4375 C29.93128837 39.52382412 27.81396456 40.67095965 25.6875 42 C21.21175336 44.57355432 17.34637431 44.86740619 12.1875 44.4375 C8.36708605 43.10415481 5.0273972 41.89865449 2.95703125 38.296875 C2.70308594 37.68328125 2.44914062 37.0696875 2.1875 36.4375 C2.62578125 36.7984375 3.0640625 37.159375 3.515625 37.53125 C9.48998016 41.90272939 14.91310334 42.55427357 22.1875 41.4375 C25.70412056 39.87309628 25.70412056 39.87309628 28.1875 37.4375 C28.93 36.81875 29.6725 36.2 30.4375 35.5625 C34.50696204 30.62101038 34.55795644 25.15622638 34.44921875 19 C34.00748023 14.6749184 32.16558158 12.41558158 29.1875 9.4375 C24.66630369 7.69857834 19.47815189 7.43741467 15.03125 9.37890625 C8.357316 13.35089309 4.766407 18.0691943 2.1875 25.4375 C1.69101331 28.43074185 1.38653612 31.41077826 1.1875 34.4375 C0.8575 34.4375 0.5275 34.4375 0.1875 34.4375 C0.13312393 32.85455218 0.09453729 31.27105744 0.0625 29.6875 C0.03929687 28.80578125 0.01609375 27.9240625 -0.0078125 27.015625 C0.19610498 24.3239142 0.82198279 22.73845026 2.1875 20.4375 C1.5275 20.1075 0.8675 19.7775 0.1875 19.4375 C0.80625 19.210625 1.425 18.98375 2.0625 18.75 C4.95850673 16.96128996 5.28075894 15.71571768 6.1875 12.4375 C6.67651958 9.44734901 7.10608465 6.46865618 7.1875 3.4375 C5.19772675 1.44772675 1.40219538 2.19723118 -1.3125 2.1875 C-8.63829341 2.21341195 -15.03349579 2.30713084 -20.90625 7.171875 C-24.15799075 10.50103815 -25.67410719 12.59330388 -26.4375 17.25 C-25.80995565 20.4504762 -25.43139148 21.58245187 -22.8125 23.4375 C-23.4725 24.0975 -24.1325 24.7575 -24.8125 25.4375 C-27.70408993 21.84491858 -28.86556524 20.26001115 -28.5625 15.5625 C-28.315 14.53125 -28.0675 13.5 -27.8125 12.4375 C-29.41713449 12.74758884 -31.02119231 13.06066287 -32.625 13.375 C-33.51832031 13.54902344 -34.41164063 13.72304688 -35.33203125 13.90234375 C-38.56653679 14.60018195 -40.43881168 15.06381168 -42.8125 17.4375 C-43.8025 17.1075 -44.7925 16.7775 -45.8125 16.4375 C-41.51762958 12.14262958 -37.04371311 9.33008779 -31.5625 6.75 C-30.67002563 6.32255493 -30.67002563 6.32255493 -29.75952148 5.88647461 C-20.01419044 1.45466005 -10.66813223 -0.09833468 0 0 Z " fill="#0A9DDF" transform="translate(130.8125,6.5625)"/>
<path d="M0 0 C-0.33 3.63 -0.66 7.26 -1 11 C-2.5675 11 -4.135 11 -5.75 11 C-9.57739745 11.35180441 -9.57739745 11.35180441 -12.5546875 13.56640625 C-15.13065053 18.37048328 -15.46257638 22.63411401 -15 28 C-14.67 28.66 -14.34 29.32 -14 30 C-14.04640625 29.20335937 -14.0928125 28.40671875 -14.140625 27.5859375 C-14.47275618 17.83551513 -14.47275618 17.83551513 -12.4375 14.25 C-10 12 -10 12 -6.5625 11.4375 C-0.47316925 12.39897328 2.98138032 15.4232387 7 20 C7.8125 22.3125 7.8125 22.3125 8 24 C8.70125 23.38125 9.4025 22.7625 10.125 22.125 C15.34091775 18.26975645 20.64081461 17.19713691 27 18 C32.15644045 19.81992016 34.86733271 22.56205468 38 27 C42.04132998 35.8524371 39.68447136 45.06607931 37 54 C33.46016921 63.03786584 28.82486856 70.19384661 19.83203125 74.2734375 C14.50612593 76.38563023 9.29265935 77.25602335 3.80859375 75.1640625 C-1.31969542 72.264195 -5.21942316 68.70444061 -7 63 C-8.12380978 54.47484927 -7.95704942 45.74922178 -4 38 C-5.32 38 -6.64 38 -8 38 C-7.649375 38.61875 -7.29875 39.2375 -6.9375 39.875 C-6.628125 40.57625 -6.31875 41.2775 -6 42 C-6.33 42.66 -6.66 43.32 -7 44 C-12.56225539 42.65157445 -15.73442841 38.43310121 -19 34 C-20.99265268 28.02204197 -21.22177284 20.48999686 -19.12890625 14.51171875 C-15.48709256 8.36242678 -7.63113618 0 0 0 Z " fill="#FCFDFC" transform="translate(68,105)"/>
<path d="M0 0 C1.09248047 -0.01836914 1.09248047 -0.01836914 2.20703125 -0.03710938 C4.09782978 -0.04235188 5.98815581 0.06516615 7.875 0.1875 C9.875 2.1875 9.875 2.1875 9.95703125 4.17578125 C9.41432871 8.85560748 8.92130416 12.43039154 5.875 16.1875 C4.66902209 17.08650172 3.46045779 17.98203934 2.25 18.875 C-0.07980531 20.7563909 -1.00360438 21.67032141 -1.6953125 24.6171875 C-1.81418572 26.35893863 -1.90449868 28.10289658 -1.96484375 29.84765625 C-2.17922128 32.97965961 -3.11228265 34.80205722 -5.125 37.1875 C-8.77013669 39.39809902 -11.92896044 39.49595038 -16.1015625 39.6484375 C-18.30065416 39.98732784 -18.30065416 39.98732784 -19.30859375 42.0859375 C-19.57800781 42.77945313 -19.84742188 43.47296875 -20.125 44.1875 C-21.5625 46.4375 -21.5625 46.4375 -23.125 48.1875 C-24.115 48.1875 -25.105 48.1875 -26.125 48.1875 C-26.455 49.1775 -26.785 50.1675 -27.125 51.1875 C-27.785 51.1875 -28.445 51.1875 -29.125 51.1875 C-30.14366229 49.53217377 -31.14310813 47.86489862 -32.125 46.1875 C-34.41205831 45.04397084 -35.71764762 45.08415561 -38.25 45.125 C-40.168125 45.1559375 -40.168125 45.1559375 -42.125 45.1875 C-41.795 43.5375 -41.465 41.8875 -41.125 40.1875 C-39.805 40.1875 -38.485 40.1875 -37.125 40.1875 C-38.40117188 39.91035156 -39.67734375 39.63320313 -40.9921875 39.34765625 C-42.66148893 38.98191043 -44.3307581 38.61601738 -46 38.25 C-46.84175781 38.06759766 -47.68351562 37.88519531 -48.55078125 37.69726562 C-49.35644531 37.52001953 -50.16210938 37.34277344 -50.9921875 37.16015625 C-51.73581543 36.99781494 -52.47944336 36.83547363 -53.24560547 36.66821289 C-55.125 36.1875 -55.125 36.1875 -57.125 35.1875 C-56.69244475 29.78055933 -55.54278487 26.43383878 -52.125 22.1875 C-51.465 22.1875 -50.805 22.1875 -50.125 22.1875 C-49.83625 21.589375 -49.5475 20.99125 -49.25 20.375 C-48.125 18.1875 -48.125 18.1875 -46.125 15.1875 C-46.04594936 12.85550612 -46.03701231 10.51917378 -46.125 8.1875 C-44.125 10 -44.125 10 -42.125 12.1875 C-42.125 13.1775 -42.125 14.1675 -42.125 15.1875 C-41.27228516 14.754375 -41.27228516 14.754375 -40.40234375 14.3125 C-35.33856288 11.87782739 -31.73898967 10.70971364 -26.125 11.1875 C-26.145625 12.321875 -26.16625 13.45625 -26.1875 14.625 C-26.54077477 18.00325674 -26.54077477 18.00325674 -25.125 19.1875 C-25.269375 18.1975 -25.41375 17.2075 -25.5625 16.1875 C-25.5718895 11.56786813 -23.14495949 9.13334658 -20.06640625 5.91796875 C-14.032167 0.53936113 -7.74327535 0.00692601 0 0 Z " fill="#F7F7F4" transform="translate(129.125,7.8125)"/>
<path d="M0 0 C13.67092592 4.63966236 28.20819512 11.04192555 38 22 C38.495 23.485 38.495 23.485 39 25 C34.76677156 24.37954537 31.47709705 22.89476441 27.6875 20.9375 C26.61886719 20.38964844 25.55023438 19.84179688 24.44921875 19.27734375 C23.64097656 18.85582031 22.83273438 18.43429688 22 18 C22 17.34 22 16.68 22 16 C21.46922852 15.83056885 20.93845703 15.6611377 20.39160156 15.48657227 C14.40817342 13.53903779 8.57910424 11.30337891 2.75 8.9375 C1.87859375 8.58623047 1.0071875 8.23496094 0.109375 7.87304688 C-1.54665541 7.20533339 -3.20228327 6.53662027 -4.85742188 5.86669922 C-7.23570598 4.90465403 -9.61698096 3.95025346 -12 3 C-11.79375 4.0725 -11.5875 5.145 -11.375 6.25 C-10.99516946 10.04830539 -11.19397748 10.8842665 -13 14 C-12.21753906 14.19335938 -11.43507812 14.38671875 -10.62890625 14.5859375 C-9.61699219 14.84632812 -8.60507813 15.10671875 -7.5625 15.375 C-6.55316406 15.63023438 -5.54382813 15.88546875 -4.50390625 16.1484375 C-2 17 -2 17 -1 19 C-1.99 18.7525 -1.99 18.7525 -3 18.5 C-11.01169832 17.16471695 -15.89086543 18.33852843 -23 22 C-24.33333333 22.66666667 -25.66666667 23.33333333 -27 24 C-27 21.69 -27 19.38 -27 17 C-27.556875 16.731875 -28.11375 16.46375 -28.6875 16.1875 C-31 15 -31 15 -33.3125 13.375 C-36.82589453 11.57744931 -39.10842905 11.42347097 -43 12 C-46.3325312 16.00669843 -46.37374133 19.82218744 -46.1875 24.8125 C-46.17396484 25.50537109 -46.16042969 26.19824219 -46.14648438 26.91210938 C-46.11138845 28.60841265 -46.05758943 30.30431136 -46 32 C-48.80755356 29.19244644 -48.9788969 27.24901656 -49.3125 23.3125 C-49.27695755 18.51426979 -47.45493505 13.45493505 -44 10 C-41.01110641 9.54234333 -38.01030352 9.29679049 -35 9 C-34.67 5.7 -34.34 2.4 -34 -1 C-34.99 -1.66 -35.98 -2.32 -37 -3 C-37 -3.99 -37 -4.98 -37 -6 C-27.19094131 -10.90452935 -9.60385276 -3.17674611 0 0 Z " fill="#C3AE63" transform="translate(101,106)"/>
<path d="M0 0 C0.62648437 0.08378906 1.25296875 0.16757812 1.8984375 0.25390625 C2.71570312 0.35574219 3.53296875 0.45757812 4.375 0.5625 C5.59316406 0.71912109 5.59316406 0.71912109 6.8359375 0.87890625 C9.04899186 1.18237328 9.04899186 1.18237328 11 0 C11 0.99 11 1.98 11 3 C11.89307861 3.16604736 11.89307861 3.16604736 12.80419922 3.33544922 C15.49604676 3.84059772 18.18547354 4.35764225 20.875 4.875 C21.81214844 5.04902344 22.74929687 5.22304688 23.71484375 5.40234375 C24.61074219 5.57636719 25.50664063 5.75039063 26.4296875 5.9296875 C27.25710449 6.08679199 28.08452148 6.24389648 28.93701172 6.40576172 C31 7 31 7 33 9 C24.68383188 8.41640925 16.98540674 6.26200586 9 4 C8.8659375 4.72445312 8.731875 5.44890625 8.59375 6.1953125 C7.86256074 9.64921968 6.79853611 12.94655268 5.71875 16.3046875 C2.03226974 30.12898846 3.26177099 45.3599144 7 59 C5.02 59.495 5.02 59.495 3 60 C3.7763932 63.0745356 3.7763932 63.0745356 6 65 C5.34773438 65.35191406 4.69546875 65.70382813 4.0234375 66.06640625 C-2.895007 69.9746131 -9.03456574 74.3437879 -12 82 C-12.3173964 85.30346997 -12.3173964 85.30346997 -12.25 88.875 C-12.25515625 90.06867188 -12.2603125 91.26234375 -12.265625 92.4921875 C-12.00134006 95.98230337 -11.25362935 98.74653337 -10 102 C-13 100 -13 100 -14 97 C-14.66 96.67 -15.32 96.34 -16 96 C-16 92.37 -16 88.74 -16 85 C-17.98 85 -19.96 85 -22 85 C-22 86.65 -22 88.3 -22 90 C-22.66 90 -23.32 90 -24 90 C-24.23783203 90.94359375 -24.23783203 90.94359375 -24.48046875 91.90625 C-26.13817002 97.98754083 -28.36394482 102.85491007 -32 108 C-32 104.20210703 -30.58394684 101.39801399 -29.0625 98 C-24.63969391 87.98455048 -22.88755235 77.16694447 -26.5 66.5 C-26.995 65.345 -27.49 64.19 -28 63 C-22.06516274 67.94569772 -21.76212072 74.75985314 -21 82 C-16.37454254 81.25992681 -14.19800049 78.78942309 -11.28515625 75.2890625 C-9.78454012 72.61623256 -9.77375742 71.77974853 -10.5625 68.875 C-10.80097656 68.12605469 -11.03945313 67.37710938 -11.28515625 66.60546875 C-13.85717799 57.23094143 -12.3649608 48.84244831 -7.66015625 40.51171875 C-5.66061101 37.48652442 -3.86140157 35.22553455 -1 33 C-0.34 33 0.32 33 1 33 C1.08636719 32.00742188 1.17273437 31.01484375 1.26171875 29.9921875 C2.22177459 20.31980443 4.31263391 12.00730648 8 3 C5.36 2.67 2.72 2.34 0 2 C0 1.34 0 0.68 0 0 Z " fill="#598B9B" transform="translate(61,40)"/>
<path d="M0 0 C-0.33 3.63 -0.66 7.26 -1 11 C-2.5675 11 -4.135 11 -5.75 11 C-9.57739745 11.35180441 -9.57739745 11.35180441 -12.5546875 13.56640625 C-15.13065053 18.37048328 -15.46257638 22.63411401 -15 28 C-14.67 28.66 -14.34 29.32 -14 30 C-14.04640625 29.20335937 -14.0928125 28.40671875 -14.140625 27.5859375 C-14.47275618 17.83551513 -14.47275618 17.83551513 -12.4375 14.25 C-10 12 -10 12 -6.5625 11.4375 C-0.65085773 12.3709172 3.34516077 15.27020805 7 20 C7.28657414 23.79710737 6.7303604 25.98698065 4.49609375 29.0859375 C2.73196572 31.13583141 0.89940286 33.07555007 -1 35 C-1.7425 35.825 -2.485 36.65 -3.25 37.5 C-5 39 -5 39 -8 39 C-7.34 39.99 -6.68 40.98 -6 42 C-6.33 42.66 -6.66 43.32 -7 44 C-12.56225539 42.65157445 -15.73442841 38.43310121 -19 34 C-20.99265268 28.02204197 -21.22177284 20.48999686 -19.12890625 14.51171875 C-15.48709256 8.36242678 -7.63113618 0 0 0 Z " fill="#F7F7F4" transform="translate(68,105)"/>
<path d="M0 0 C0.72832031 -0.01224609 1.45664063 -0.02449219 2.20703125 -0.03710938 C4.09782978 -0.04235188 5.98815581 0.06516615 7.875 0.1875 C9.875 2.1875 9.875 2.1875 9.95703125 4.17578125 C9.3032138 9.81377232 8.66677379 13.8923107 4.07421875 17.66796875 C2.04347712 19.09445958 0.17636244 20.25706636 -2.125 21.1875 C-5 20.5625 -5 20.5625 -7.125 19.1875 C-10.30246491 17.59876754 -13.66512202 17.77723779 -17.125 18.1875 C-19.5845774 19.52580958 -19.5845774 19.52580958 -21.125 21.1875 C-22.445 20.5275 -23.765 19.8675 -25.125 19.1875 C-25.67321716 15.42829665 -25.83427894 13.31412278 -23.77734375 10.046875 C-16.96575848 1.96279578 -10.27808248 0.00919328 0 0 Z " fill="#FAFAF8" transform="translate(129.125,7.8125)"/>
<path d="M0 0 C6.11736277 1.6408926 12.00271136 3.70671051 17.875 6.0625 C18.51703369 6.3198291 19.15906738 6.5771582 19.82055664 6.84228516 C28.74725328 10.46923189 28.74725328 10.46923189 30.25 13.625 C32.26050392 22.67226765 30.19739549 28.85614027 26 37 C24.46293807 39.34925943 23.02745742 41.02733873 21 43 C20.34 43 19.68 43 19 43 C19.14120016 40.41633755 19.28778333 37.83317115 19.4375 35.25 C19.47681641 34.52039063 19.51613281 33.79078125 19.55664062 33.0390625 C19.76147098 29.5727027 20.0852002 26.34666974 21 23 C13.98974678 17.29145724 7.9408203 13.660191 -1 12 C-1 8 -1 8 0 5 C0.03874921 3.33378384 0.0450286 1.66605828 0 0 Z " fill="#F9F9F6" transform="translate(89,109)"/>
<path d="M0 0 C13.67092592 4.63966236 28.20819512 11.04192555 38 22 C38.495 23.485 38.495 23.485 39 25 C34.76677156 24.37954537 31.47709705 22.89476441 27.6875 20.9375 C26.61886719 20.38964844 25.55023438 19.84179688 24.44921875 19.27734375 C23.64097656 18.85582031 22.83273438 18.43429688 22 18 C22 17.34 22 16.68 22 16 C21.46777832 15.83056885 20.93555664 15.6611377 20.38720703 15.48657227 C13.54950692 13.26435675 6.93210762 10.60501407 0.28515625 7.87304688 C-4.43201336 5.95647028 -9.07270534 4.28857435 -14 3 C-14.061875 2.38125 -14.12375 1.7625 -14.1875 1.125 C-14.8207515 -1.20409483 -14.8207515 -1.20409483 -17.1875 -2.25 C-20.24032669 -3.06408712 -22.85417035 -3.14631766 -26 -3 C-24.93458984 -2.49339844 -24.93458984 -2.49339844 -23.84765625 -1.9765625 C-22.46900391 -1.30753906 -22.46900391 -1.30753906 -21.0625 -0.625 C-20.14597656 -0.18414062 -19.22945312 0.25671875 -18.28515625 0.7109375 C-16 2 -16 2 -15 4 C-15.66 3.731875 -16.32 3.46375 -17 3.1875 C-17.99 2.795625 -18.98 2.40375 -20 2 C-20.60457031 1.74734375 -21.20914063 1.4946875 -21.83203125 1.234375 C-26.59115545 -0.68053888 -30.88882165 -1.54364479 -36 -2 C-36.33 -3.32 -36.66 -4.64 -37 -6 C-27.19094131 -10.90452935 -9.60385276 -3.17674611 0 0 Z " fill="#BA192F" transform="translate(101,106)"/>
<path d="M0 0 C1.67016516 0.99414593 3.33720673 1.9935725 5 3 C8.23556199 2.78150791 8.23556199 2.78150791 11 2 C10.5153125 2.39445312 10.030625 2.78890625 9.53125 3.1953125 C7.56977823 5.50704708 7.60929726 6.87843358 7.5 9.875 C7.19344713 13.99843665 6.74792086 16.74320491 4 20 C0.87249462 21.98593214 -1.11806142 22.15910861 -4.75 21.625 C-5.54921875 21.51414062 -6.3484375 21.40328125 -7.171875 21.2890625 C-8.07679687 21.14597656 -8.07679687 21.14597656 -9 21 C-9 20.34 -9 19.68 -9 19 C-9.99 19 -10.98 19 -12 19 C-14.08517734 17.14650903 -14.93154107 15.74734331 -15.1875 12.953125 C-15.1875 10.96776599 -15.0991441 8.98288195 -15 7 C-14.34 7 -13.68 7 -13 7 C-12.731875 6.21625 -12.46375 5.4325 -12.1875 4.625 C-9.75709531 -0.74747352 -5.27185639 -0.7264369 0 0 Z " fill="#CD1431" transform="translate(120,25)"/>
<path d="M0 0 C1.14057861 0.00539795 2.28115723 0.0107959 3.45629883 0.01635742 C11.97464758 0.16991227 19.24733475 1.19400644 27.1875 4.4375 C27.97511719 4.74558594 28.76273437 5.05367187 29.57421875 5.37109375 C31.13291569 6.0111088 32.66619867 6.7130708 34.1875 7.4375 C33.5275 8.0975 32.8675 8.7575 32.1875 9.4375 C32.661875 9.870625 33.13625 10.30375 33.625 10.75 C36.65113463 14.0182254 36.29546112 17.39711558 36.25 21.625 C36.24097656 22.71167969 36.23195313 23.79835938 36.22265625 24.91796875 C36.21105469 25.74941406 36.19945312 26.58085938 36.1875 27.4375 C35.8575 27.4375 35.5275 27.4375 35.1875 27.4375 C35.13142578 26.33341797 35.13142578 26.33341797 35.07421875 25.20703125 C34.62697503 18.56853132 34.02757031 14.27757031 29.1875 9.4375 C24.66630369 7.69857834 19.47815189 7.43741467 15.03125 9.37890625 C8.357316 13.35089309 4.766407 18.0691943 2.1875 25.4375 C1.69101331 28.43074185 1.38653612 31.41077826 1.1875 34.4375 C0.8575 34.4375 0.5275 34.4375 0.1875 34.4375 C0.13312393 32.85455218 0.09453729 31.27105744 0.0625 29.6875 C0.03929687 28.80578125 0.01609375 27.9240625 -0.0078125 27.015625 C0.19610498 24.3239142 0.82198279 22.73845026 2.1875 20.4375 C1.5275 20.1075 0.8675 19.7775 0.1875 19.4375 C0.80625 19.210625 1.425 18.98375 2.0625 18.75 C4.95850673 16.96128996 5.28075894 15.71571768 6.1875 12.4375 C6.67651958 9.44734901 7.10608465 6.46865618 7.1875 3.4375 C5.19772675 1.44772675 1.40219538 2.19723118 -1.3125 2.1875 C-8.63829341 2.21341195 -15.03349579 2.30713084 -20.90625 7.171875 C-24.15799075 10.50103815 -25.67410719 12.59330388 -26.4375 17.25 C-25.80995565 20.4504762 -25.43139148 21.58245187 -22.8125 23.4375 C-23.4725 24.0975 -24.1325 24.7575 -24.8125 25.4375 C-27.70408993 21.84491858 -28.86556524 20.26001115 -28.5625 15.5625 C-28.315 14.53125 -28.0675 13.5 -27.8125 12.4375 C-29.41713449 12.74758884 -31.02119231 13.06066287 -32.625 13.375 C-33.51832031 13.54902344 -34.41164063 13.72304688 -35.33203125 13.90234375 C-38.56653679 14.60018195 -40.43881168 15.06381168 -42.8125 17.4375 C-43.8025 17.1075 -44.7925 16.7775 -45.8125 16.4375 C-41.51762958 12.14262958 -37.04371311 9.33008779 -31.5625 6.75 C-30.67002563 6.32255493 -30.67002563 6.32255493 -29.75952148 5.88647461 C-20.01354267 1.45436547 -10.66857889 -0.09679392 0 0 Z " fill="#678B94" transform="translate(130.8125,6.5625)"/>
<path d="M0 0 C3.58792981 1.49161127 5.64312838 3.53032868 8.1875 6.4375 C8.88230469 7.21996094 9.57710937 8.00242187 10.29296875 8.80859375 C12 11 12 11 13 14 C12.34 14 11.68 14 11 14 C11 15.32 11 16.64 11 18 C10.34 18 9.68 18 9 18 C9 18.66 9 19.32 9 20 C8.10023438 19.75765625 7.20046875 19.5153125 6.2734375 19.265625 C-5.37381618 16.20606629 -17.13655704 14.04066967 -29 12 C-29 11.34 -29 10.68 -29 10 C-27.88625 9.896875 -26.7725 9.79375 -25.625 9.6875 C-24.42875 9.460625 -23.2325 9.23375 -22 9 C-21.34 8.01 -20.68 7.02 -20 6 C-18.1171875 5.8125 -18.1171875 5.8125 -15.875 6 C-10.44423849 6.18394515 -5.40150316 5.23307195 -1.2734375 1.39453125 C-0.85320312 0.93433594 -0.43296875 0.47414062 0 0 Z " fill="#EEEDEA" transform="translate(161,44)"/>
<path d="M0 0 C0.99250545 5.70690634 1.10477512 11.21408489 1 17 C1.66 17 2.32 17 3 17 C3 19.31 3 21.62 3 24 C2.01 24 1.02 24 0 24 C0 24.70125 0 25.4025 0 26.125 C-1.55233238 30.58795558 -5.16489997 32.45782663 -9 35 C-12.57130697 29.42876112 -11.65099069 21.38098212 -11 15 C-9.78652583 9.79845938 -6.57964687 0 0 0 Z " fill="#069EE3" transform="translate(62,75)"/>
<path d="M0 0 C2 1.8125 2 1.8125 4 4 C4 4.99 4 5.98 4 7 C5.65 6.34 7.3 5.68 9 5 C9.12375 6.5778125 9.12375 6.5778125 9.25 8.1875 C10.06207899 12.31556818 11.05830641 14.05830641 14 17 C14.99 17.33 15.98 17.66 17 18 C17 19.32 17 20.64 17 22 C16.01 22.66 15.02 23.32 14 24 C14 24.99 14 25.98 14 27 C13.4225 26.690625 12.845 26.38125 12.25 26.0625 C10.0661063 24.9327131 10.0661063 24.9327131 7.8125 24.5 C7.214375 24.335 6.61625 24.17 6 24 C5.67 23.34 5.34 22.68 5 22 C2.47266765 21.34444881 2.47266765 21.34444881 0 21 C-0.33 20.01 -0.66 19.02 -1 18 C-2.32 17.67 -3.64 17.34 -5 17 C-7.475 20.465 -7.475 20.465 -10 24 C-10.33 23.34 -10.66 22.68 -11 22 C-10.07421875 20.0546875 -10.07421875 20.0546875 -8.6875 17.875 C-8.23761719 17.15054688 -7.78773437 16.42609375 -7.32421875 15.6796875 C-6.88722656 15.12539063 -6.45023437 14.57109375 -6 14 C-5.34 14 -4.68 14 -4 14 C-3.71125 13.401875 -3.4225 12.80375 -3.125 12.1875 C-2 10 -2 10 0 7 C0.07905064 4.66800612 0.08798769 2.33167378 0 0 Z " fill="#E1DED8" transform="translate(83,16)"/>
<path d="M0 0 C0.495 0.99 0.495 0.99 1 2 C-0.9805948 4.68163007 -2.98365858 7.34515046 -5 10 C-5.41765625 10.55816406 -5.8353125 11.11632812 -6.265625 11.69140625 C-9.38701846 15.67638523 -12.83022227 18.22014818 -17 21 C-16.67 21.495 -16.34 21.99 -16 22.5 C-14.58986412 26.0253397 -14.43312873 29.29022221 -15 33 C-17.59817092 38.30026868 -21.18410621 40.85114637 -26 44 C-26.33 43.34 -26.66 42.68 -27 42 C-26.21625 41.4225 -25.4325 40.845 -24.625 40.25 C-22.19952756 38.17102363 -21.14305583 36.90959667 -20 34 C-19.01 34 -18.02 34 -17 34 C-16.73423384 29.97999573 -16.73423384 29.97999573 -17 26 C-20.08721321 22.58201395 -23.60797829 22.07625087 -28.06640625 21.83203125 C-34.7356283 21.79477303 -40.86309347 22.20651908 -47.390625 23.5390625 C-51.50647149 24.26611323 -55.88687585 24.90550121 -60 24 C-61.78125 21.9765625 -61.78125 21.9765625 -63 20 C-62.401875 20.33 -61.80375 20.66 -61.1875 21 C-58.94613529 22.20787988 -58.94613529 22.20787988 -56 22 C-55.67 21.34 -55.34 20.68 -55 20 C-54.67 20.33 -54.34 20.66 -54 21 C-44.37059557 21.27234679 -36.92157519 17.01699762 -29 12 C-29 12.66 -29 13.32 -29 14 C-29.99 14.66 -30.98 15.32 -32 16 C-32.33 16.99 -32.66 17.98 -33 19 C-31.2365625 18.9690625 -31.2365625 18.9690625 -29.4375 18.9375 C-25.52586533 18.93052739 -21.85502056 19.35749657 -18 20 C-18 19.34 -18 18.68 -18 18 C-17.360625 17.896875 -16.72125 17.79375 -16.0625 17.6875 C-15.381875 17.460625 -14.70125 17.23375 -14 17 C-13.505 15.515 -13.505 15.515 -13 14 C-12.34 14 -11.68 14 -11 14 C-10.855625 13.38125 -10.71125 12.7625 -10.5625 12.125 C-10 10 -10 10 -9 8 C-7.68 8 -6.36 8 -5 8 C-5 7.01 -5 6.02 -5 5 C-2.5 2.3125 -2.5 2.3125 0 0 Z " fill="#107CA5" transform="translate(195,108)"/>
<path d="M0 0 C2.475 0.495 2.475 0.495 5 1 C5 1.66 5 2.32 5 3 C5.66 3.33 6.32 3.66 7 4 C6.01 4 5.02 4 4 4 C4.04640625 4.78503906 4.0928125 5.57007812 4.140625 6.37890625 C4.37439033 13.18314702 4.16882407 17.57797114 0 23 C-0.48210937 23.6909375 -0.96421875 24.381875 -1.4609375 25.09375 C-5.35823721 30.55392624 -5.35823721 30.55392624 -8.0625 32.43359375 C-10.45433247 34.36731315 -11.00664236 35.92555436 -12 38.8125 C-13.55932583 42.99294941 -15.30423904 46.40565205 -18 50 C-18.40347656 50.54785156 -18.80695313 51.09570312 -19.22265625 51.66015625 C-21.63808338 54.7846996 -23.12634048 56.30241301 -27 57 C-26.43732422 56.36384766 -26.43732422 56.36384766 -25.86328125 55.71484375 C-24.2180477 53.82924862 -22.60500343 51.91993318 -21 50 C-20.54753906 49.47148437 -20.09507813 48.94296875 -19.62890625 48.3984375 C-13.02313016 40.04346836 -9.892175 27.54412006 -11 17 C-12.29727469 11.83951761 -14.40211409 7.970081 -18 4 C-13.95579349 5.77945087 -10.53921513 8.39529673 -7 11 C-7.1546875 11.52464844 -7.309375 12.04929688 -7.46875 12.58984375 C-8.369237 16.67514137 -8.45387801 20.83690222 -8.71875 25.00390625 C-9 28 -9 28 -10 31 C-3.5007358 27.10044148 -1.29471216 19.88413648 1 13 C1.14632404 8.46395485 1.10636545 4.42546179 0 0 Z " fill="#3B8098" transform="translate(118,121)"/>
<path d="M0 0 C7.37297297 2.34594595 7.37297297 2.34594595 10 4 C10.33 4.99 10.66 5.98 11 7 C22.14364241 16.97398529 36.31236809 23.40434096 51.3125 23.375 C52.04944092 23.37556396 52.78638184 23.37612793 53.5456543 23.37670898 C59.96751232 23.24837001 65.14458958 21.58969306 71 19 C72.3254186 18.63646951 73.65699955 18.29195662 75 18 C72.76637233 20.48971237 70.68553017 21.79842208 67.625 23.125 C66.87476562 23.45757812 66.12453125 23.79015625 65.3515625 24.1328125 C53.04701413 28.67037021 39.41899476 25.47072811 27.68359375 20.6328125 C19.25446768 16.39187548 4.30877004 8.61754008 0 0 Z " fill="#4387A0" transform="translate(41,170)"/>
<path d="M0 0 C0.33 0.66 0.66 1.32 1 2 C0.39910047 3.21085784 -0.25823644 4.39380074 -0.9375 5.5625 C-4.14182078 12.49957341 -4.24316981 20.52967958 -3 28 C-1.09564504 32.99567088 1.54308887 35.93159851 5.8125 39.0625 C12.84051624 41.1295636 19.08728236 40.01097241 26 38 C23.31891246 40.80295516 21.98066557 41.93385913 17.98828125 42.203125 C4.84542134 42.37072789 4.84542134 42.37072789 0 39 C-1.28874318 36.99937963 -2.27044097 35.03969774 -3.17578125 32.83984375 C-3.95513493 30.80738293 -3.95513493 30.80738293 -6 29 C-5.95411405 26.92470366 -5.89769543 24.8486987 -5.76953125 22.77685547 C-5.14892191 15.15813055 -5.14892191 15.15813055 -7.7734375 8.25390625 C-9.77752764 6.56273545 -11.67017454 5.19611575 -14 4 C-13.67 3.34 -13.34 2.68 -13 2 C-12.51789062 2.42152344 -12.03578125 2.84304687 -11.5390625 3.27734375 C-10.90742187 3.82519531 -10.27578125 4.37304688 -9.625 4.9375 C-8.99851562 5.48277344 -8.37203125 6.02804688 -7.7265625 6.58984375 C-6.04367666 8.06958624 -6.04367666 8.06958624 -4 9 C-4.61277612 6.03824877 -5.25372522 4.61941217 -7 2 C-5.35 2.33 -3.7 2.66 -2 3 C-1.34 2.01 -0.68 1.02 0 0 Z " fill="#438AA5" transform="translate(65,140)"/>
<path d="M0 0 C-3.38317487 0.97591583 -5.5657338 0.85856655 -9 0 C-9.33 0.66 -9.66 1.32 -10 2 C-8.865625 2.28875 -7.73125 2.5775 -6.5625 2.875 C-5.386875 3.24625 -4.21125 3.6175 -3 4 C-2.67 4.66 -2.34 5.32 -2 6 C-4.97 5.34 -7.94 4.68 -11 4 C-11.33 2.68 -11.66 1.36 -12 0 C-15.6617375 -2.09242143 -18.84532871 -2.19324053 -23 -2 C-21.93458984 -1.49339844 -21.93458984 -1.49339844 -20.84765625 -0.9765625 C-19.46900391 -0.30753906 -19.46900391 -0.30753906 -18.0625 0.375 C-17.14597656 0.81585938 -16.22945312 1.25671875 -15.28515625 1.7109375 C-13 3 -13 3 -12 5 C-12.66 4.731875 -13.32 4.46375 -14 4.1875 C-14.99 3.795625 -15.98 3.40375 -17 3 C-17.60457031 2.74734375 -18.20914063 2.4946875 -18.83203125 2.234375 C-23.59115545 0.31946112 -27.88882165 -0.54364479 -33 -1 C-33.33 -2.32 -33.66 -3.64 -34 -5 C-24.87854493 -9.56072754 -9.07880497 -2.78951944 0 0 Z " fill="#A64720" transform="translate(98,105)"/>
<path d="M0 0 C0.66 0.33 1.32 0.66 2 1 C2 2.32 2 3.64 2 5 C2.845625 4.690625 3.69125 4.38125 4.5625 4.0625 C8.05713295 2.98234073 11.37864561 2.46943483 15 2 C15.66 1.7525 16.32 1.505 17 1.25 C20.38922047 0.82634744 22.97253884 2.54448982 26 4 C25.34 4.66 24.68 5.32 24 6 C24.474375 6.433125 24.94875 6.86625 25.4375 7.3125 C28.46363463 10.5807254 28.10796112 13.95961558 28.0625 18.1875 C28.05347656 19.27417969 28.04445312 20.36085938 28.03515625 21.48046875 C28.02355469 22.31191406 28.01195312 23.14335938 28 24 C27.67 24 27.34 24 27 24 C26.94392578 22.89591797 26.94392578 22.89591797 26.88671875 21.76953125 C26.43947503 15.13103132 25.84007031 10.84007031 21 6 C16.47880369 4.26107834 11.29065189 3.99991467 6.84375 5.94140625 C0.169816 9.91339309 -3.421093 14.6316943 -6 22 C-6.49648669 24.99324185 -6.80096388 27.97327826 -7 31 C-7.33 31 -7.66 31 -8 31 C-8.05437607 29.41705218 -8.09296271 27.83355744 -8.125 26.25 C-8.14820313 25.36828125 -8.17140625 24.4865625 -8.1953125 23.578125 C-7.99139502 20.8864142 -7.36551721 19.30095026 -6 17 C-6.66 16.67 -7.32 16.34 -8 16 C-7.38125 15.773125 -6.7625 15.54625 -6.125 15.3125 C-2.72463251 13.21227302 -2.34475811 10.42691553 -1.4375 6.671875 C-0.93490861 4.45209637 -0.45661406 2.22963674 0 0 Z " fill="#39829D" transform="translate(139,10)"/>
<path d="M0 0 C4.92453503 1.44169747 9.06449914 3.51005059 13.4375 6.125 C14.09693604 6.5180835 14.75637207 6.91116699 15.43579102 7.31616211 C20.55665938 10.48410856 24.52354378 14.03556641 28 19 C26.125 19.625 26.125 19.625 24 20 C23.34 19.34 22.68 18.68 22 18 C20.70721058 17.45104483 19.39117993 16.95526463 18.0625 16.5 C15.28783389 15.54572231 13.50194395 14.66796263 11 13 C11 12.34 11 11.68 11 11 C9.35 10.67 7.7 10.34 6 10 C9.01031744 9.06576355 9.86650268 8.95550089 13 10 C9.45647382 5.68614204 5.04807753 4.0278602 0 2 C0 1.34 0 0.68 0 0 Z " fill="#A5253C" transform="translate(112,111)"/>
<path d="M0 0 C0.33 0.66 0.66 1.32 1 2 C-0.9805948 4.68163007 -2.98365858 7.34515046 -5 10 C-5.41765625 10.55816406 -5.8353125 11.11632812 -6.265625 11.69140625 C-9.38701846 15.67638523 -12.83022227 18.22014818 -17 21 C-16.67 21.495 -16.34 21.99 -16 22.5 C-14.58986412 26.0253397 -14.43312873 29.29022221 -15 33 C-17.59817092 38.30026868 -21.18410621 40.85114637 -26 44 C-26.33 43.34 -26.66 42.68 -27 42 C-26.21625 41.4225 -25.4325 40.845 -24.625 40.25 C-22.19952756 38.17102363 -21.14305583 36.90959667 -20 34 C-19.01 34 -18.02 34 -17 34 C-16.95875 32.72125 -16.9175 31.4425 -16.875 30.125 C-16.84019531 29.04605469 -16.84019531 29.04605469 -16.8046875 27.9453125 C-16.81668311 25.76136355 -16.81668311 25.76136355 -19 24 C-18.625 20.875 -18.625 20.875 -18 18 C-17.360625 17.896875 -16.72125 17.79375 -16.0625 17.6875 C-15.381875 17.460625 -14.70125 17.23375 -14 17 C-13.67 16.01 -13.34 15.02 -13 14 C-12.34 14 -11.68 14 -11 14 C-10.855625 13.38125 -10.71125 12.7625 -10.5625 12.125 C-10 10 -10 10 -9 8 C-7.68 8 -6.36 8 -5 8 C-5 7.01 -5 6.02 -5 5 C-2.5 2.3125 -2.5 2.3125 0 0 Z " fill="#317F9B" transform="translate(195,108)"/>
<path d="M0 0 C2.51083114 1.25541557 2.87125446 2.50063488 4 5 C4.99 5 5.98 5 7 5 C8 7 8 7 7.25 9.625 C5 12 5 12 2.34765625 12.32421875 C-0.44993877 12.31341722 -3.21090159 12.21308901 -6 12 C-7.1171875 8.28125 -7.1171875 8.28125 -6.0625 5.75 C-5.5365625 4.88375 -5.5365625 4.88375 -5 4 C-3.35 4 -1.7 4 0 4 C0 2.68 0 1.36 0 0 Z " fill="#F8E045" transform="translate(79,110)"/>
<path d="M0 0 C0.93972656 0.12568359 0.93972656 0.12568359 1.8984375 0.25390625 C3.12433594 0.40666016 3.12433594 0.40666016 4.375 0.5625 C5.59316406 0.71912109 5.59316406 0.71912109 6.8359375 0.87890625 C9.04899186 1.18237328 9.04899186 1.18237328 11 0 C11 0.99 11 1.98 11 3 C11.59538574 3.11069824 12.19077148 3.22139648 12.80419922 3.33544922 C15.49604676 3.84059772 18.18547354 4.35764225 20.875 4.875 C21.81214844 5.04902344 22.74929687 5.22304688 23.71484375 5.40234375 C24.61074219 5.57636719 25.50664063 5.75039063 26.4296875 5.9296875 C27.25710449 6.08679199 28.08452148 6.24389648 28.93701172 6.40576172 C31 7 31 7 33 9 C24.68383188 8.41640925 16.98540674 6.26200586 9 4 C8.7985437 5.09658936 8.7985437 5.09658936 8.59301758 6.21533203 C8.05262846 8.75286939 7.3384079 11.09932452 6.51171875 13.5546875 C4.7387578 19.36396379 4.23114131 25.08734733 3.8125 31.125 C3.73064453 32.176875 3.64878906 33.22875 3.56445312 34.3125 C3.366486 36.87442746 3.17851741 39.43665663 3 42 C2.67 42 2.34 42 2 42 C0.2777606 27.57042669 2.83217845 16.33376859 8 3 C5.36 2.67 2.72 2.34 0 2 C0 1.34 0 0.68 0 0 Z " fill="#ACA8A0" transform="translate(61,40)"/>
<path d="M0 0 C0.33 0 0.66 0 1 0 C1.04898438 1.15757813 1.09796875 2.31515625 1.1484375 3.5078125 C1.22351478 5.0468967 1.29906043 6.5859581 1.375 8.125 C1.4059375 8.88554688 1.436875 9.64609375 1.46875 10.4296875 C1.702369 14.94632158 2.32654117 18.74152347 4 23 C1 21 1 21 0 18 C-0.66 17.67 -1.32 17.34 -2 17 C-2 13.37 -2 9.74 -2 6 C-3.98 6 -5.96 6 -8 6 C-8 7.65 -8 9.3 -8 11 C-8.66 11 -9.32 11 -10 11 C-10.15855469 11.6290625 -10.31710938 12.258125 -10.48046875 12.90625 C-12.13817002 18.98754083 -14.36394482 23.85491007 -18 29 C-18 25.20210703 -16.58394684 22.39801399 -15.0625 19 C-12.87339088 14.0633818 -12.87339088 14.0633818 -11 9 C-10.34 9 -9.68 9 -9 9 C-9 7.68 -9 6.36 -9 5 C-7.88625 4.731875 -6.7725 4.46375 -5.625 4.1875 C-1.78159049 3.34190981 -1.78159049 3.34190981 0 0 Z " fill="#3088AC" transform="translate(47,119)"/>
<path d="M0 0 C0.66 0 1.32 0 2 0 C2.66 0.66 3.32 1.32 4 2 C4.99 1.34 5.98 0.68 7 0 C7 3 7 3 4.875 5.5625 C1.83414817 8.1406135 -0.07432514 9.34572086 -4 10 C-6.5 8.6875 -6.5 8.6875 -9 7 C-12.19395026 6.28598768 -12.19395026 6.28598768 -15 6 C-14.01 5.34 -13.02 4.68 -12 4 C-12 3.34 -12 2.68 -12 2 C-11.34 2 -10.68 2 -10 2 C-10 2.66 -10 3.32 -10 4 C-8.72125 3.71125 -7.4425 3.4225 -6.125 3.125 C-5.40570313 2.96257813 -4.68640625 2.80015625 -3.9453125 2.6328125 C-1.79280036 2.09525572 -1.79280036 2.09525572 0 0 Z " fill="#F8F6F0" transform="translate(129,19)"/>
<path d="M0 0 C0.9075 0.350625 1.815 0.70125 2.75 1.0625 C5.87758436 1.96468779 7.05208081 2.13381507 10 1 C9.27876953 1.58201172 9.27876953 1.58201172 8.54296875 2.17578125 C6.54250502 4.54088647 6.51123932 6.12691453 6.3125 9.1875 C6.24675781 10.08855469 6.18101563 10.98960938 6.11328125 11.91796875 C6.07589844 12.60503906 6.03851563 13.29210938 6 14 C5.67 14 5.34 14 5 14 C4.67 10.7 4.34 7.4 4 4 C3.01 4.495 3.01 4.495 2 5 C1.34444881 7.52733235 1.34444881 7.52733235 1 10 C-1.31 10 -3.62 10 -6 10 C-6.33 8.35 -6.66 6.7 -7 5 C-6.030625 4.54625 -5.06125 4.0925 -4.0625 3.625 C-0.92920418 2.34213779 -0.92920418 2.34213779 0 0 Z " fill="#B74050" transform="translate(121,26)"/>
<path d="M0 0 C2.29946417 3.44919626 2.80769035 6.1381022 3.625 10.1875 C3.88539062 11.45980469 4.14578125 12.73210937 4.4140625 14.04296875 C4.60742188 15.01878906 4.80078125 15.99460937 5 17 C3.68 17.33 2.36 17.66 1 18 C1.7763932 21.0745356 1.7763932 21.0745356 4 23 C0.37 24.98 -3.26 26.96 -7 29 C-7.66 28.34 -8.32 27.68 -9 27 C-8.05125 26.278125 -7.1025 25.55625 -6.125 24.8125 C-3.32587438 22.50190102 -2.01482442 20.55188548 -1 17 C-0.01 17 0.98 17 2 17 C2 14.69 2 12.38 2 10 C1.34 10 0.68 10 0 10 C0 6.7 0 3.4 0 0 Z " fill="#3C7A96" transform="translate(63,82)"/>
<path d="M0 0 C-3.63 1.65 -7.26 3.3 -11 5 C-8.36 5 -5.72 5 -3 5 C-3.03480469 5.68707031 -3.06960937 6.37414062 -3.10546875 7.08203125 C-3.13253906 7.98308594 -3.15960938 8.88414063 -3.1875 9.8125 C-3.22230469 10.70582031 -3.25710937 11.59914063 -3.29296875 12.51953125 C-2.95081002 15.41647515 -2.24606427 16.22555028 0 18 C-0.66 18.66 -1.32 19.32 -2 20 C-4.89158993 16.40741858 -6.05306524 14.82251115 -5.75 10.125 C-5.5025 9.09375 -5.255 8.0625 -5 7 C-6.60463449 7.31008884 -8.20869231 7.62316287 -9.8125 7.9375 C-10.70582031 8.11152344 -11.59914063 8.28554688 -12.51953125 8.46484375 C-15.75403679 9.16268195 -17.62631168 9.62631168 -20 12 C-20.99 11.67 -21.98 11.34 -23 11 C-17.05200703 5.32237035 -8.52060892 -2.13015223 0 0 Z " fill="#64828A" transform="translate(108,12)"/>
<path d="M0 0 C-0.32742187 0.56203125 -0.65484375 1.1240625 -0.9921875 1.703125 C-2.11785494 4.26859964 -2.2068111 5.96842277 -2.125 8.75 C-2.10695313 9.54921875 -2.08890625 10.3484375 -2.0703125 11.171875 C-2.04710938 11.77515625 -2.02390625 12.3784375 -2 13 C-3.875 13.625 -3.875 13.625 -6 14 C-8.49117578 11.50882422 -8.35140298 10.51144551 -8.4375 7.0625 C-8.390625 4.359375 -8.390625 4.359375 -8 2 C-4.95721218 -0.8783128 -4.00764254 -1.33588085 0 0 Z " fill="#DB0429" transform="translate(115,28)"/>
<path d="M0 0 C5.73491451 -0.88229454 8.76938812 1.49896975 13.2421875 4.6875 C13.82226562 5.120625 14.40234375 5.55375 15 6 C12.29120665 7.35439668 9.99066732 7.06501451 7 7 C7.02320313 7.69867188 7.04640625 8.39734375 7.0703125 9.1171875 C7.08835938 10.02726562 7.10640625 10.93734375 7.125 11.875 C7.14820313 12.77992187 7.17140625 13.68484375 7.1953125 14.6171875 C7 17 7 17 5 19 C4.96261719 18.19175781 4.92523438 17.38351563 4.88671875 16.55078125 C4.82097656 15.48214844 4.75523437 14.41351563 4.6875 13.3125 C4.60048828 11.72888672 4.60048828 11.72888672 4.51171875 10.11328125 C3.95809468 6.74504934 2.90587591 4.79757107 1 2 C0.67 1.34 0.34 0.68 0 0 Z " fill="#1F93C5" transform="translate(162,15)"/>
<path d="M0 0 C0.66 0.66 1.32 1.32 2 2 C1.24074219 1.96519531 0.48148438 1.93039063 -0.30078125 1.89453125 C-1.29464844 1.86746094 -2.28851562 1.84039062 -3.3125 1.8125 C-4.29863281 1.77769531 -5.28476562 1.74289063 -6.30078125 1.70703125 C-9.43535805 2.04725304 -10.01470113 2.67702566 -12 5 C-15 6.125 -15 6.125 -18 7 C-21.06565448 7.65604893 -21.06565448 7.65604893 -22.0625 9.8125 C-22.371875 10.534375 -22.68125 11.25625 -23 12 C-23.66666667 13.33333333 -24.33333333 14.66666667 -25 16 C-25.66 16 -26.32 16 -27 16 C-27.3735461 12.73147163 -27.14191172 11.23841169 -25.4375 8.375 C-22.51556581 5.5279872 -19.7877292 4.46193057 -16 3 C-15.2575 2.443125 -14.515 1.88625 -13.75 1.3125 C-9.40590779 -0.76081674 -4.73624761 -0.5872642 0 0 Z " fill="#C5C0B8" transform="translate(27,98)"/>
<path d="M0 0 C0.99 0 1.98 0 3 0 C3.33 2.64 3.66 5.28 4 8 C3.01 8.33 2.02 8.66 1 9 C1 10.32 1 11.64 1 13 C0.34 13 -0.32 13 -1 13 C-1.33 13.66 -1.66 14.32 -2 15 C-3.65 14.67 -5.3 14.34 -7 14 C-7.33 13.01 -7.66 12.02 -8 11 C-6.5625 8.8125 -6.5625 8.8125 -5 7 C-4.67 7.66 -4.34 8.32 -4 9 C-4.33 9.66 -4.66 10.32 -5 11 C-4.34 10.67 -3.68 10.34 -3 10 C-2.67 9.01 -2.34 8.02 -2 7 C-1.34 6.34 -0.68 5.68 0 5 C0.16687448 2.41645782 0.16687448 2.41645782 0 0 Z " fill="#DF042A" transform="translate(122,30)"/>
<path d="M0 0 C4.73864483 1.66492926 4.73864483 1.66492926 6.21875 3.5625 C9.03142344 5.83237681 11.65881386 5.2846198 15.1875 5.1875 C16.45980469 5.16042969 17.73210937 5.13335937 19.04296875 5.10546875 C20.01878906 5.07066406 20.99460938 5.03585938 22 5 C18.91111478 7.05925681 18.29064073 7.2390374 14.8125 7.125 C12.9253125 7.063125 12.9253125 7.063125 11 7 C11 7.66 11 8.32 11 9 C8.1875 9.625 8.1875 9.625 5 10 C2 8 2 8 1.375 5.5625 C1.25125 4.716875 1.1275 3.87125 1 3 C0.67 2.01 0.34 1.02 0 0 Z " fill="#1398D5" transform="translate(127,126)"/>
<path d="M0 0 C7.00897689 1.72931766 13.50288191 3.83967342 20 7 C20 7.66 20 8.32 20 9 C14.35379191 8.50471859 10.19840186 7.40666753 5 5 C3.00736409 4.31163487 1.00958663 3.63718601 -1 3 C-0.67 2.01 -0.34 1.02 0 0 Z " fill="#D90629" transform="translate(89,104)"/>
<path d="M0 0 C2 3 2 3 2 5 C2.598125 5.226875 3.19625 5.45375 3.8125 5.6875 C7.12778063 7.67666838 8.31370589 10.62741178 10 14 C9.67 14.66 9.34 15.32 9 16 C4.56541027 14.6062718 2.12621626 12.39417765 -1 9 C0 6 0 6 1 4 C0.34 3.67 -0.32 3.34 -1 3 C-0.67 2.01 -0.34 1.02 0 0 Z " fill="#EDEDE9" transform="translate(52,133)"/>
<path d="M0 0 C1.35793517 0.48967278 2.71354264 0.98611148 4.0625 1.5 C3.0725 1.995 3.0725 1.995 2.0625 2.5 C1.0725 2.17 0.0825 1.84 -0.9375 1.5 C-7.66066048 0.9204172 -11.9974411 2.44064636 -17.9375 5.5 C-19.27083333 6.16666667 -20.60416667 6.83333333 -21.9375 7.5 C-21.9375 5.19 -21.9375 2.88 -21.9375 0.5 C-21.03 0.54125 -20.1225 0.5825 -19.1875 0.625 C-16.05606965 0.73464902 -16.05606965 0.73464902 -14 -0.5 C-9.32060584 -2.76879717 -4.71105389 -1.56294398 0 0 Z " fill="#C3BBAA" transform="translate(95.9375,122.5)"/>
<path d="M0 0 C-0.165 0.515625 -0.33 1.03125 -0.5 1.5625 C-1.15049 4.73363876 -1.0620734 7.77218334 -1 11 C-0.67 11 -0.34 11 0 11 C0 12.65 0 14.3 0 16 C-2.31 15.67 -4.62 15.34 -7 15 C-6.93989582 13.06164034 -6.85108283 11.12415509 -6.75 9.1875 C-6.70359375 8.10855469 -6.6571875 7.02960937 -6.609375 5.91796875 C-6 3 -6 3 -4.078125 1.11328125 C-2 0 -2 0 0 0 Z " fill="#EFE2DC" transform="translate(133,27)"/>
<path d="M0 0 C4.04420651 1.77945087 7.46078487 4.39529673 11 7 C10.84152588 7.57524414 10.68305176 8.15048828 10.51977539 8.74316406 C10.02086674 10.90939777 9.80111676 12.89322683 9.68359375 15.109375 C9.64169922 15.86347656 9.59980469 16.61757812 9.55664062 17.39453125 C9.49766602 18.56048828 9.49766602 18.56048828 9.4375 19.75 C9.39431641 20.54277344 9.35113281 21.33554688 9.30664062 22.15234375 C9.20097009 24.10137815 9.10002034 26.05066748 9 28 C8.01 28.33 7.02 28.66 6 29 C6.10699219 27.9378125 6.21398437 26.875625 6.32421875 25.78125 C7.16116675 16.42888123 7.61364119 9.95585077 1.8125 2 C1.214375 1.34 0.61625 0.68 0 0 Z " fill="#ABA397" transform="translate(100,125)"/>
<path d="M0 0 C0.33 0.66 0.66 1.32 1 2 C0.27564115 3.86095445 -0.53077021 5.69026983 -1.375 7.5 C-3.80272281 13.06829497 -4.85278791 17.95092125 -5 24 C-5.33 24 -5.66 24 -6 24 C-5.9071875 23.14277344 -5.814375 22.28554687 -5.71875 21.40234375 C-5.11750283 14.59324091 -5.11750283 14.59324091 -7.78125 8.578125 C-9.78134717 6.87381685 -11.7618727 5.37385046 -14 4 C-13.67 3.34 -13.34 2.68 -13 2 C-12.51789062 2.42152344 -12.03578125 2.84304687 -11.5390625 3.27734375 C-10.90742187 3.82519531 -10.27578125 4.37304688 -9.625 4.9375 C-8.99851562 5.48277344 -8.37203125 6.02804688 -7.7265625 6.58984375 C-6.04367666 8.06958624 -6.04367666 8.06958624 -4 9 C-4.61277612 6.03824877 -5.25372522 4.61941217 -7 2 C-5.35 2.33 -3.7 2.66 -2 3 C-1.34 2.01 -0.68 1.02 0 0 Z " fill="#2F7A97" transform="translate(65,140)"/>
<path d="M0 0 C2.375 -0.125 2.375 -0.125 5 0 C7 2 7 2 7 5 C5.35 5 3.7 5 2 5 C1.67 7.31 1.34 9.62 1 12 C3.97 12.33 6.94 12.66 10 13 C8 15 8 15 6.125 15.08203125 C5.073125 14.94861328 5.073125 14.94861328 4 14.8125 C3.29875 14.73644531 2.5975 14.66039063 1.875 14.58203125 C0 14 0 14 -2 11 C-1.36474424 9.32110979 -0.69313908 7.65583225 0 6 C0.16757757 2.79129767 0.16757757 2.79129767 0 0 Z " fill="#987F2E" transform="translate(72,109)"/>
<path d="M0 0 C0.66 0.33 1.32 0.66 2 1 C-0.51142339 4.58774771 -2.99455446 5.44377442 -7.125 6.25 C-18.67244945 7.95270702 -18.67244945 7.95270702 -23 7 C-24.78125 4.9765625 -24.78125 4.9765625 -26 3 C-25.401875 3.33 -24.80375 3.66 -24.1875 4 C-21.94613529 5.20787988 -21.94613529 5.20787988 -19 5 C-18.67 4.34 -18.34 3.68 -18 3 C-17.67 3.33 -17.34 3.66 -17 4 C-12.10483032 3.96248912 -7.46847062 3.4301194 -3 1.375 C-2.01 0.92125 -1.02 0.4675 0 0 Z " fill="#516B7E" transform="translate(158,125)"/>
<path d="M0 0 C0.66 0 1.32 0 2 0 C2 0.66 2 1.32 2 2 C2.99 2.33 3.98 2.66 5 3 C3.7934375 3.61875 3.7934375 3.61875 2.5625 4.25 C-0.13567931 5.71371334 -0.13567931 5.71371334 -0.6875 8.0625 C-0.790625 8.701875 -0.89375 9.34125 -1 10 C-1.66 10.66 -2.32 11.32 -3 12 C-3.99 12 -4.98 12 -6 12 C-6.33 12.99 -6.66 13.98 -7 15 C-7.66 15 -8.32 15 -9 15 C-9.33 13.68 -9.66 12.36 -10 11 C-9.0925 10.4225 -8.185 9.845 -7.25 9.25 C-4.45516123 7.31511162 -2.17714395 5.59582548 0 3 C0 2.01 0 1.02 0 0 Z " fill="#C0ADA6" transform="translate(109,44)"/>
<path d="M0 0 C0.33 0 0.66 0 1 0 C1 2.31 1 4.62 1 7 C1.66 7.33 2.32 7.66 3 8 C2.60167969 8.42410156 2.20335937 8.84820312 1.79296875 9.28515625 C-4.21811285 15.93975997 -6.4170517 22.13516558 -7 31 C-7.33 31 -7.66 31 -8 31 C-8.05437607 29.41705218 -8.09296271 27.83355744 -8.125 26.25 C-8.14820313 25.36828125 -8.17140625 24.4865625 -8.1953125 23.578125 C-7.99139502 20.8864142 -7.36551721 19.30095026 -6 17 C-6.66 16.67 -7.32 16.34 -8 16 C-7.38125 15.773125 -6.7625 15.54625 -6.125 15.3125 C-2.72463251 13.21227302 -2.34475811 10.42691553 -1.4375 6.671875 C-0.93490861 4.45209637 -0.45661406 2.22963674 0 0 Z " fill="#597273" transform="translate(139,10)"/>
<path d="M0 0 C2.00720923 0.28674418 4.0085944 0.61866701 6 1 C5.01 1.33 4.02 1.66 3 2 C3.20625 2.886875 3.4125 3.77375 3.625 4.6875 C4.02550239 8.2252711 3.56683516 9.86632967 2 13 C-0.07493465 11.30729015 -0.93070018 10.47024878 -1.328125 7.7734375 C-1.30234375 6.98195313 -1.2765625 6.19046875 -1.25 5.375 C-1.23453125 4.57835938 -1.2190625 3.78171875 -1.203125 2.9609375 C-1 1 -1 1 0 0 Z " fill="#F5DE4B" transform="translate(69,107)"/>
<path d="M0 0 C-0.639375 0.103125 -1.27875 0.20625 -1.9375 0.3125 C-2.618125 0.539375 -3.29875 0.76625 -4 1 C-4.33 1.99 -4.66 2.98 -5 4 C-6.4375 5.6875 -6.4375 5.6875 -8 7 C-8.66 7 -9.32 7 -10 7 C-10 7.66 -10 8.32 -10 9 C-11.1875 10.3125 -11.1875 10.3125 -13 12 C-13.886875 12.886875 -14.77375 13.77375 -15.6875 14.6875 C-16.450625 15.450625 -17.21375 16.21375 -18 17 C-18.66 16.67 -19.32 16.34 -20 16 C-19.48050781 15.41992188 -18.96101562 14.83984375 -18.42578125 14.2421875 C-17.72839844 13.46101562 -17.03101563 12.67984375 -16.3125 11.875 C-15.5803125 11.05644531 -14.848125 10.23789063 -14.09375 9.39453125 C-12.42835195 7.48988759 -10.8598885 5.56121015 -9.3125 3.5625 C-6.62869372 0.5885525 -3.96465266 -1.98232633 0 0 Z " fill="#E7F2F3" transform="translate(148,162)"/>
<path d="M0 0 C0 3 0 3 -1.75 4.82421875 C-2.4925 5.43910156 -3.235 6.05398437 -4 6.6875 C-4.7425 7.31011719 -5.485 7.93273437 -6.25 8.57421875 C-6.8275 9.04472656 -7.405 9.51523438 -8 10 C-7.34 10.66 -6.68 11.32 -6 12 C-8.62594784 11.8863485 -11.25011547 11.75960946 -13.875 11.625 C-14.62136719 11.5940625 -15.36773437 11.563125 -16.13671875 11.53125 C-21.7734375 11.2265625 -21.7734375 11.2265625 -24 9 C-23.05640625 9.05220703 -23.05640625 9.05220703 -22.09375 9.10546875 C-15.34673154 9.31885337 -9.51123893 8.94854038 -4.171875 4.46484375 C-2.72315668 3.03304971 -1.35321944 1.52237187 0 0 Z " fill="#668993" transform="translate(27,148)"/>
<path d="M0 0 C0.33 0.66 0.66 1.32 1 2 C-2.53613714 6.78775956 -6.14483704 11.46451416 -10 16 C-10.99 15.34 -11.98 14.68 -13 14 C-12.34 14 -11.68 14 -11 14 C-10.7834375 13.071875 -10.7834375 13.071875 -10.5625 12.125 C-10 10 -10 10 -9 8 C-7.68 8 -6.36 8 -5 8 C-5 7.01 -5 6.02 -5 5 C-2.5 2.3125 -2.5 2.3125 0 0 Z " fill="#2B95BF" transform="translate(195,108)"/>
<path d="M0 0 C1.62580966 0.11398665 3.25067157 0.24155659 4.875 0.375 C5.77992188 0.44460938 6.68484375 0.51421875 7.6171875 0.5859375 C10 1 10 1 12 3 C5.5 6 5.5 6 1 6 C0.67 4.02 0.34 2.04 0 0 Z " fill="#0E9EDE" transform="translate(140,9)"/>
<path d="M0 0 C0.66 0.66 1.32 1.32 2 2 C1.67 2.99 1.34 3.98 1 5 C-1.64 5 -4.28 5 -7 5 C-7.33 3.68 -7.66 2.36 -8 1 C-5.23749964 -0.38125018 -3.05268901 -0.19079306 0 0 Z " fill="#A22225" transform="translate(72,99)"/>
<path d="M0 0 C6.6344655 -0.37553578 12.80593702 0.46606514 19 3 C19.99 4.485 19.99 4.485 21 6 C19.02 6 17.04 6 15 6 C14.67 5.34 14.34 4.68 14 4 C10.9272138 3.64248879 7.87590862 3.55560568 4.78515625 3.44140625 C3.40650391 3.22291016 3.40650391 3.22291016 2 3 C1.34 2.01 0.68 1.02 0 0 Z " fill="#478AA2" transform="translate(136,7)"/>
<path d="M0 0 C7.37297297 2.34594595 7.37297297 2.34594595 10 4 C10.33 4.99 10.66 5.98 11 7 C12.62332967 8.38576923 14.28724465 9.72641268 16 11 C15.67 11.66 15.34 12.32 15 13 C12.6838794 11.21285146 10.37206728 9.42058195 8.0625 7.625 C7.40314453 7.11710938 6.74378906 6.60921875 6.06445312 6.0859375 C5.43603516 5.59609375 4.80761719 5.10625 4.16015625 4.6015625 C3.57886963 4.15119629 2.99758301 3.70083008 2.39868164 3.23681641 C1 2 1 2 0 0 Z " fill="#4387A0" transform="translate(41,170)"/>
<path d="M0 0 C4.75481646 0.57634139 7.97048212 2.55068521 12 5 C12 5.66 12 6.32 12 7 C4.65882353 6.51058824 4.65882353 6.51058824 1.5 4.0625 C0 2 0 2 0 0 Z " fill="#D5082A" transform="translate(113,114)"/>
<path d="M0 0 C0.75 1.75 0.75 1.75 1 4 C-0.85055798 6.23343204 -2.40383083 7.70191542 -5 9 C-6.54613014 8.91348369 -8.08909387 8.75997364 -9.625 8.5625 C-10.44226563 8.46066406 -11.25953125 8.35882813 -12.1015625 8.25390625 C-12.72804688 8.17011719 -13.35453125 8.08632813 -14 8 C-14 7.67 -14 7.34 -14 7 C-11.03 7 -8.06 7 -5 7 C-4.67 6.01 -4.34 5.02 -4 4 C-3.34 4.33 -2.68 4.66 -2 5 C-2 3.68 -2 2.36 -2 1 C-1.34 0.67 -0.68 0.34 0 0 Z " fill="#B41C30" transform="translate(125,38)"/>
<path d="M0 0 C5.66104589 0.49658297 9.87674471 1.54510684 15 4 C15 4.66 15 5.32 15 6 C15.639375 6.28875 16.27875 6.5775 16.9375 6.875 C19 8 19 8 20 10 C15.68006869 8.33374078 11.61660024 6.32850762 7.5 4.21875 C5.03861782 3.01882619 2.55396658 1.9851014 0 1 C0 0.67 0 0.34 0 0 Z " fill="#4088A2" transform="translate(21,160)"/>
<path d="M0 0 C2.475 0.495 2.475 0.495 5 1 C5 1.66 5 2.32 5 3 C5.66 3.33 6.32 3.66 7 4 C6.01 4 5.02 4 4 4 C4.03480469 4.83144531 4.06960937 5.66289063 4.10546875 6.51953125 C4.13253906 7.60621094 4.15960938 8.69289062 4.1875 9.8125 C4.22230469 10.89144531 4.25710937 11.97039062 4.29296875 13.08203125 C4 16 4 16 1 19 C1.66 14.38 2.32 9.76 3 5 C2.34 5 1.68 5 1 5 C0.67 3.35 0.34 1.7 0 0 Z " fill="#2C8DB8" transform="translate(118,121)"/>
<path d="M0 0 C2.6875 -0.375 2.6875 -0.375 6 0 C8.06398076 1.823983 9.39041053 3.72763839 11 6 C9.234375 6.6796875 9.234375 6.6796875 7 7 C5.078125 5.8203125 5.078125 5.8203125 3.25 4.125 C2.63640625 3.57070312 2.0228125 3.01640625 1.390625 2.4453125 C0 1 0 1 0 0 Z " fill="#BA112A" transform="translate(129,124)"/>
<path d="M0 0 C6.05537521 0.30276876 9.51483458 3.27754038 14 7 C13.67 7.66 13.34 8.32 13 9 C12.01 9 11.02 9 10 9 C8 7 8 7 6 4 C4.03247172 2.93753473 2.03412421 1.92862192 0 1 C0 0.67 0 0.34 0 0 Z " fill="#C3A821" transform="translate(73,107)"/>
<path d="M0 0 C0.28875 0.639375 0.5775 1.27875 0.875 1.9375 C1.82823451 4.15206079 1.82823451 4.15206079 4 5 C4.144375 5.639375 4.28875 6.27875 4.4375 6.9375 C4.86165035 9.38210855 4.86165035 9.38210855 8 11 C4.2404812 10.47784461 1.63228537 9.82726947 -1 7 C-1.3125 3.875 -1.3125 3.875 -1 1 C-0.67 0.67 -0.34 0.34 0 0 Z " fill="#C6C2B9" transform="translate(139,26)"/>
<path d="M0 0 C0.66 0.33 1.32 0.66 2 1 C0.23381453 3.12901814 -1.537644 5.25323015 -3.3125 7.375 C-3.81201172 7.97828125 -4.31152344 8.5815625 -4.82617188 9.203125 C-5.55610352 10.07324219 -5.55610352 10.07324219 -6.30078125 10.9609375 C-6.74591064 11.49509277 -7.19104004 12.02924805 -7.6496582 12.57958984 C-9 14 -9 14 -12 16 C-12 14.68 -12 13.36 -12 12 C-11.319375 11.608125 -10.63875 11.21625 -9.9375 10.8125 C-5.56018964 8.11160637 -2.99604134 4.11847758 0 0 Z " fill="#34829E" transform="translate(138,164)"/>
<path d="M0 0 C3.93774177 -0.36630156 5.56539771 -0.30233203 8.875 2 C9.926875 2.99 9.926875 2.99 11 4 C10.34 4.66 9.68 5.32 9 6 C4.05 4.02 4.05 4.02 -1 2 C-0.67 1.34 -0.34 0.68 0 0 Z " fill="#F6D84F" transform="translate(75,102)"/>
<path d="M0 0 C0.87263489 2.72698402 0.96899194 4.5788171 0.8125 7.5 C0.65756287 11.07314137 0.65756287 11.07314137 3 13.4375 C3.66 13.953125 4.32 14.46875 5 15 C4.67 15.66 4.34 16.32 4 17 C2.79794536 15.93283928 1.61367667 14.84561663 0.4375 13.75 C-0.22378906 13.14671875 -0.88507813 12.5434375 -1.56640625 11.921875 C-3 10 -3 10 -2.78125 7.96875 C-2.5234375 7.3190625 -2.265625 6.669375 -2 6 C-1.649375 4.9275 -1.29875 3.855 -0.9375 2.75 C-0.4734375 1.38875 -0.4734375 1.38875 0 0 Z " fill="#34819B" transform="translate(165,34)"/>
<path d="M0 0 C0 1.65 0 3.3 0 5 C-1.65 5 -3.3 5 -5 5 C-5.33 3.35 -5.66 1.7 -6 0 C-3.50907189 -1.24546405 -2.58919267 -0.7767578 0 0 Z " fill="#F9DBE4" transform="translate(121,30)"/>
<path d="M0 0 C0 0.99 0 1.98 0 3 C-4.03385747 5.77327701 -6.48134633 7.41258739 -11.4375 6.75 C-12.613125 6.5025 -13.78875 6.255 -15 6 C-14.01 5.34 -13.02 4.68 -12 4 C-12 3.34 -12 2.68 -12 2 C-11.34 2 -10.68 2 -10 2 C-10 2.66 -10 3.32 -10 4 C-8.72125 3.71125 -7.4425 3.4225 -6.125 3.125 C-5.40570313 2.96257813 -4.68640625 2.80015625 -3.9453125 2.6328125 C-1.79280036 2.09525572 -1.79280036 2.09525572 0 0 Z " fill="#C3B7AC" transform="translate(129,19)"/>
<path d="M0 0 C0 1.32 0 2.64 0 4 C-1.85625 3.7215625 -1.85625 3.7215625 -3.75 3.4375 C-6.76279577 3.05288777 -9.10010827 2.9125406 -12 4 C-8.41084094 -0.78554541 -5.58334594 -0.37222306 0 0 Z " fill="#AF2639" transform="translate(120,25)"/>
<path d="M0 0 C1.32 1.32 2.64 2.64 4 4 C2.5682479 9.01113235 0.01554307 10.94469549 -4 14 C-2.79618552 11.50638429 -1.54571278 9.31856917 0 7 C0.07905064 4.66800612 0.08798769 2.33167378 0 0 Z " fill="#BFBBB2" transform="translate(83,16)"/>
<path d="M0 0 C-0.33 1.65 -0.66 3.3 -1 5 C-3.97 5 -6.94 5 -10 5 C-3.63636364 0 -3.63636364 0 0 0 Z " fill="#179BD4" transform="translate(105,13)"/>
<path d="M0 0 C0.33 0.66 0.66 1.32 1 2 C0.01 2.66 -0.98 3.32 -2 4 C-2.33 4.99 -2.66 5.98 -3 7 C-0.36 7 2.28 7 5 7 C5 7.33 5 7.66 5 8 C0.71 8 -3.58 8 -8 8 C-2.25 1.125 -2.25 1.125 0 0 Z " fill="#228CB9" transform="translate(165,120)"/>
<path d="M0 0 C1.32 1.32 2.64 2.64 4 4 C2.70700306 6.88437779 1.34058637 8.87219421 -1 11 C-1.33 10.34 -1.66 9.68 -2 9 C-1.33333333 7.33333333 -0.66666667 5.66666667 0 4 C-0.33 3.34 -0.66 2.68 -1 2 C-0.67 1.34 -0.34 0.68 0 0 Z " fill="#F4EDE8" transform="translate(106,41)"/>
<path d="M0 0 C-2.09836004 1.03271642 -4.20390891 2.05083717 -6.3125 3.0625 C-7.48425781 3.63097656 -8.65601563 4.19945312 -9.86328125 4.78515625 C-13 6 -13 6 -16 5 C-5.55789474 -1.85263158 -5.55789474 -1.85263158 0 0 Z " fill="#3A829E" transform="translate(168,153)"/>
<path d="M0 0 C0.66 1.32 1.32 2.64 2 4 C0.71034824 5.37562854 -0.62689293 6.70766393 -2 8 C-2.66 8 -3.32 8 -4 8 C-3.50168276 4.31245243 -2.89932357 2.39509338 0 0 Z " fill="#EFF4F2" transform="translate(112,144)"/>
<path d="M0 0 C0.33 0.66 0.66 1.32 1 2 C0.22265625 4.1640625 0.22265625 4.1640625 -0.9375 6.625 C-1.31777344 7.44226563 -1.69804688 8.25953125 -2.08984375 9.1015625 C-2.54037109 10.04128906 -2.54037109 10.04128906 -3 11 C-3.66 10.34 -4.32 9.68 -5 9 C-4.67 8.01 -4.34 7.02 -4 6 C-5.37168238 3.80961577 -5.37168238 3.80961577 -7 2 C-4.525 2.495 -4.525 2.495 -2 3 C-1.34 2.01 -0.68 1.02 0 0 Z " fill="#A49E92" transform="translate(65,140)"/>
<path d="M0 0 C0.66 0.66 1.32 1.32 2 2 C1.63318342 4.93453261 1.13562754 5.86437246 -1 8 C-1.99 8 -2.98 8 -4 8 C-2.25 2.25 -2.25 2.25 0 0 Z " fill="#F4F1E8" transform="translate(138,21)"/>
<path d="M0 0 C0.66 1.32 1.32 2.64 2 4 C0.02 6.97 0.02 6.97 -2 10 C-2.66 9.34 -3.32 8.68 -4 8 C-2.68 5.36 -1.36 2.72 0 0 Z " fill="#EDF2F1" transform="translate(101,160)"/>
<path d="M0 0 C0.66 0 1.32 0 2 0 C1.9375 2.1875 1.9375 2.1875 1 5 C-1.1717219 6.93157957 -3.52601047 8.48201687 -6 10 C-6.33 9.34 -6.66 8.68 -7 8 C-6.21625 7.4225 -5.4325 6.845 -4.625 6.25 C-2.19952756 4.17102363 -1.14305583 2.90959667 0 0 Z " fill="#3088AC" transform="translate(175,142)"/>
<path d="M0 0 C4.08378283 0.74250597 8.01939223 1.82923301 12 3 C10.5 4.1875 10.5 4.1875 8 5 C5.21175762 4.27101296 2.62334908 3.1843275 0 2 C0 1.34 0 0.68 0 0 Z " fill="#B73441" transform="translate(96,110)"/>
<path d="M0 0 C2.00293347 3.00440021 2.49271626 4.70993945 3.125 8.1875 C3.37636719 9.53908203 3.37636719 9.53908203 3.6328125 10.91796875 C3.75398438 11.60503906 3.87515625 12.29210937 4 13 C3.34 12.67 2.68 12.34 2 12 C2 11.34 2 10.68 2 10 C1.34 10 0.68 10 0 10 C0 6.7 0 3.4 0 0 Z " fill="#4D90A7" transform="translate(63,82)"/>
<path d="M0 0 C0.66 0.99 1.32 1.98 2 3 C1.35891863 4.67667436 0.68528045 6.34089996 0 8 C-0.46720367 10.98909878 -0.75044081 13.98558767 -1 17 C-1.33 17 -1.66 17 -2 17 C-2.05437607 15.41705218 -2.09296271 13.83355744 -2.125 12.25 C-2.14820313 11.36828125 -2.17140625 10.4865625 -2.1953125 9.578125 C-1.99139502 6.8864142 -1.36551721 5.30095026 0 3 C-0.66 2.67 -1.32 2.34 -2 2 C-1.34 1.34 -0.68 0.68 0 0 Z " fill="#A59B8F" transform="translate(133,24)"/>
<path d="M0 0 C0.99 0.33 1.98 0.66 3 1 C3 1.66 3 2.32 3 3 C3.66 3 4.32 3 5 3 C5 4.32 5 5.64 5 7 C3.68 7 2.36 7 1 7 C0.67 4.69 0.34 2.38 0 0 Z " fill="#0D8CC2" transform="translate(107,158)"/>
<path d="M0 0 C2.125 0.9375 2.125 0.9375 4 2 C4 2.99 4 3.98 4 5 C0.7 4.01 -2.6 3.02 -6 2 C-4.68 1.67 -3.36 1.34 -2 1 C-1.34 0.67 -0.68 0.34 0 0 Z " fill="#EFD9D4" transform="translate(104,104)"/>
<path d="M0 0 C2.875 -0.125 2.875 -0.125 6 0 C6.66 0.66 7.32 1.32 8 2 C7 3 7 3 3.4375 3.0625 C2.303125 3.041875 1.16875 3.02125 0 3 C0 2.01 0 1.02 0 0 Z " fill="#B21C31" transform="translate(66,99)"/>
<path d="M0 0 C0.66 0.33 1.32 0.66 2 1 C-0.25 3.5625 -0.25 3.5625 -3 6 C-5.3125 5.8125 -5.3125 5.8125 -7 5 C-2.25 1.125 -2.25 1.125 0 0 Z " fill="#EDF3F1" transform="translate(146,15)"/>
<path d="M0 0 C0.66 0 1.32 0 2 0 C2 1.32 2 2.64 2 4 C1.34 4 0.68 4 0 4 C-0.33 5.32 -0.66 6.64 -1 8 C-1.66 8 -2.32 8 -3 8 C-1.125 1.125 -1.125 1.125 0 0 Z " fill="#129CD8" transform="translate(106,159)"/>
<path d="M0 0 C0.33 0 0.66 0 1 0 C1 4.62 1 9.24 1 14 C0.67 14 0.34 14 0 14 C-0.39012425 12.23243706 -0.7616098 10.46075217 -1.125 8.6875 C-1.33382812 7.70136719 -1.54265625 6.71523437 -1.7578125 5.69921875 C-2 3 -2 3 0 0 Z " fill="#5AA1BC" transform="translate(47,119)"/>
<path d="M0 0 C2.31 0.66 4.62 1.32 7 2 C6.01 3.485 6.01 3.485 5 5 C3.68 4.34 2.36 3.68 1 3 C0.67 3.66 0.34 4.32 0 5 C0 3.35 0 1.7 0 0 Z " fill="#F7E8DF" transform="translate(89,109)"/>
<path d="M0 0 C1.64826111 2.96687001 2.44271087 5.65626525 3 9 C2.01 9 1.02 9 0 9 C-1.125 2.25 -1.125 2.25 0 0 Z " fill="#E4EFEF" transform="translate(49,104)"/>
<path d="M0 0 C0.33 0 0.66 0 1 0 C1 2.97 1 5.94 1 9 C0.01 9.495 0.01 9.495 -1 10 C-1.66 9.67 -2.32 9.34 -3 9 C-2.01 6.03 -1.02 3.06 0 0 Z " fill="#0F9BD6" transform="translate(178,102)"/>
<path d="M0 0 C0 3.20395416 -0.74335022 5.09399739 -2 8 C-2.66 8 -3.32 8 -4 8 C-4.33 6.68 -4.66 5.36 -5 4 C-3.35 2.68 -1.7 1.36 0 0 Z " fill="#CFC9BF" transform="translate(104,51)"/>
<path d="M0 0 C3.48670834 1.1094072 6.77484237 2.26337666 10 4 C9.67 4.66 9.34 5.32 9 6 C2.25 3.375 2.25 3.375 0 0 Z " fill="#2A8FB8" transform="translate(41,170)"/>
<path d="M0 0 C0.33 0.66 0.66 1.32 1 2 C-0.98 4.64 -2.96 7.28 -5 10 C-5.33 9.34 -5.66 8.68 -6 8 C-4.768606 4.30581799 -2.79208646 2.64890254 0 0 Z " fill="#3A84A1" transform="translate(195,108)"/>
<path d="M0 0 C-1.39332574 3.36720387 -2.9789286 4.9859524 -6 7 C-6 4 -6 4 -4.125 1.8125 C-2 0 -2 0 0 0 Z " fill="#4E7076" transform="translate(56,110)"/>
<path d="M0 0 C0.99 0.33 1.98 0.66 3 1 C3 1.66 3 2.32 3 3 C4.32 3.66 5.64 4.32 7 5 C6.01 6.32 5.02 7.64 4 9 C3.34 6.69 2.68 4.38 2 2 C1.34 2 0.68 2 0 2 C0 1.34 0 0.68 0 0 Z " fill="#0E9BD9" transform="translate(174,21)"/>
<path d="M0 0 C2.97 1.98 2.97 1.98 6 4 C5.67 4.66 5.34 5.32 5 6 C3 5 1 4 -1 3 C-0.67 2.01 -0.34 1.02 0 0 Z " fill="#E9F1F1" transform="translate(49,177)"/>
<path d="M0 0 C1.98 0 3.96 0 6 0 C5.67 1.32 5.34 2.64 5 4 C3.0625 3.6875 3.0625 3.6875 1 3 C0.67 2.01 0.34 1.02 0 0 Z " fill="#DBD8D1" transform="translate(29,99)"/>
<path d="M0 0 C-0.33 1.32 -0.66 2.64 -1 4 C-1.66 4 -2.32 4 -3 4 C-3.33 4.66 -3.66 5.32 -4 6 C-4.66 6 -5.32 6 -6 6 C-5.6875 4.125 -5.6875 4.125 -5 2 C-2 0 -2 0 0 0 Z " fill="#F7F2E8" transform="translate(133,27)"/>
<path d="M0 0 C3.82097239 0.53069061 6.06171403 1.49701566 9 4 C8.01 4.495 8.01 4.495 7 5 C4.5249829 3.88568235 2.32116581 2.41849022 0 1 C0 0.67 0 0.34 0 0 Z " fill="#AE2734" transform="translate(109,115)"/>
</svg>
